<?xml version="1.0" encoding="utf-8"?>
<!-- Generator: Adobe Illustrator 16.0.0, SVG Export Plug-In . SVG Version: 6.00 Build 0)  -->
<!DOCTYPE svg PUBLIC "-//W3C//DTD SVG 1.1//EN" "http://www.w3.org/Graphics/SVG/1.1/DTD/svg11.dtd">
<svg version="1.1" xmlns="http://www.w3.org/2000/svg" xmlns:xlink="http://www.w3.org/1999/xlink" x="0px" y="0px" width="267px"
	 height="265.003px" viewBox="-1.521 -0.7 267 265.003" enable-background="new -1.521 -0.7 267 265.003" xml:space="preserve">
<g id="Calque_1">
	<g>
		<path fill="#CCCCCC" d="M-1.517,8.472c0-3.427,2.806-6.206,6.267-6.206h252.462c3.455,0,6.257,2.768,6.267,6.188v86.659
			c0,0-1.688,12.112-8.437,11.437c-3.635-0.698-4.853-3.156-6.96-9.022c-2.033-5.657-5.104-14.207-15.503-14.207
			c-3.582,0-7.736,1.121-12.697,3.427c-0.483,0.226-0.938,0.512-1.349,0.852c-10.114,8.35-16.541,23.86-17.197,41.488
			c-0.193,5.236,0.213,10.332,1.214,15.146c0.013,0.07,0.021,0.141,0.033,0.211c1.144,8.75,4.808,24.76,16.627,34.519
			c0.412,0.341,0.864,0.625,1.351,0.853c4.965,2.309,9.121,3.431,12.703,3.431c10.391,0,13.461-8.54,15.494-14.188
			c2.105-5.859,3.883-8.199,6.284-9.277c2.399-1.078,8.437,3.277,8.437,7.525v90.789c0,1.646-0.658,3.227-1.834,4.393
			c-1.176,1.164-2.77,1.814-4.433,1.814H4.746c-1.662,0-3.256-0.652-4.432-1.816c-1.175-1.164-1.835-2.742-1.835-4.391L-1.517,8.472
			z"/>
	</g>
	<g>
		<linearGradient id="SVGID_1_" gradientUnits="userSpaceOnUse" x1="0.479" y1="130.3174" x2="265.4785" y2="130.3174">
			<stop  offset="0" style="stop-color:#352C1A"/>
			<stop  offset="1" style="stop-color:#000000"/>
		</linearGradient>
		<path fill="url(#SVGID_1_)" d="M0.483,5.506C0.483,2.079,3.288-0.7,6.75-0.7h252.462c3.455,0,6.257,2.768,6.267,6.188v86.659
			c0,0-1.688,12.112-8.437,11.437c-3.635-0.698-4.853-3.156-6.96-9.022c-2.033-5.657-5.104-14.207-15.503-14.207
			c-3.582,0-7.736,1.121-12.697,3.427c-0.483,0.225-0.938,0.512-1.349,0.852c-10.114,8.35-16.541,23.86-17.197,41.488
			c-0.193,5.236,0.213,10.331,1.214,15.147c0.013,0.066,0.021,0.14,0.033,0.209c1.144,8.75,4.808,24.76,16.627,34.519
			c0.412,0.34,0.864,0.626,1.351,0.853c4.965,2.309,9.121,3.428,12.703,3.428c10.391,0,13.461-8.539,15.494-14.188
			c2.105-5.857,3.883-8.199,6.284-9.277c2.399-1.078,8.437,3.275,8.437,7.524v90.792c0,1.646-0.658,3.225-1.834,4.391
			c-1.176,1.164-2.77,1.815-4.433,1.815L6.746,261.333c-1.662,0-3.256-0.653-4.432-1.817c-1.175-1.164-1.835-2.742-1.835-4.389
			L0.483,5.506z"/>
	</g>
</g>
<g id="Calque_2">
	<g>
		<radialGradient id="SVGID_2_" cx="5.3335" cy="254.665" r="248.0503" gradientUnits="userSpaceOnUse">
			<stop  offset="0" style="stop-color:#FFFFFF;stop-opacity:0.2"/>
			<stop  offset="1" style="stop-color:#FFFFFF;stop-opacity:0"/>
		</radialGradient>
		<path fill="url(#SVGID_2_)" d="M6.746,261.333c0,0-3.256-0.653-4.432-1.817c-1.175-1.164-1.835-2.742-1.835-4.389L0.483,5.506
			C0.483,2.079,3.288-0.7,6.75-0.7h252.462c3.455,0,6.257,2.768,6.267,6.188C265.479,5.488,52,111.667,6.746,261.333z"/>
	</g>
</g>
</svg>
