<?xml version="1.0" encoding="utf-8"?>
<!-- Generator: Adobe Illustrator 16.0.4, SVG Export Plug-In . SVG Version: 6.00 Build 0)  -->
<!DOCTYPE svg PUBLIC "-//W3C//DTD SVG 1.1//EN" "http://www.w3.org/Graphics/SVG/1.1/DTD/svg11.dtd">
<svg version="1.1" id="Calque_1" xmlns="http://www.w3.org/2000/svg" xmlns:xlink="http://www.w3.org/1999/xlink" x="0px" y="0px"
	 width="269.002px" height="264.999px" viewBox="168.479 95.3 269.002 264.999"
	 enable-background="new 168.479 95.3 269.002 264.999" xml:space="preserve">
<g>
	<path fill="#CCCCCC" d="M434.464,104.458c0-3.428-2.815-6.207-6.29-6.207H174.77c-3.467,0-6.281,2.768-6.291,6.189v86.664
		c0,0,1.698,12.112,8.469,11.437c3.647-0.697,4.871-3.156,6.986-9.022c2.041-5.658,5.123-14.207,15.562-14.207
		c3.595,0,7.764,1.121,12.741,3.426c0.488,0.227,0.943,0.513,1.355,0.853c10.151,8.351,16.604,23.861,17.262,41.49
		c0.194,5.235-0.215,10.332-1.22,15.147c-0.011,0.069-0.021,0.14-0.032,0.209c-1.148,8.75-4.824,24.76-16.688,34.521
		c-0.413,0.34-0.868,0.625-1.354,0.853c-4.982,2.307-9.154,3.428-12.75,3.428c-10.431,0-13.514-8.541-15.554-14.189
		c-2.114-5.859-3.897-8.199-6.308-9.279c-2.408-1.078-8.467,3.278-8.467,7.526v90.796c0,1.647,0.662,3.225,1.842,4.389
		c1.18,1.166,2.779,1.82,4.447,1.82l253.408-0.003c1.667,0,3.27-0.652,4.448-1.817c1.179-1.164,1.842-2.741,1.842-4.389
		L434.464,104.458z"/>
</g>
<g>
	<g>
		<path fill="#FFFFFF" d="M177.782,355.348c-1.153,0-2.234-0.44-3.044-1.24c-0.804-0.795-1.247-1.848-1.247-2.967v-90.797
			c0-2.653,3.977-5.691,5.603-5.691c1.701,0.732,3.226,2.398,5.293,8.125c2.094,5.802,5.599,15.511,17.434,15.511
			c3.893,0,8.338-1.182,13.59-3.614c0.647-0.302,1.245-0.679,1.785-1.123c12.381-10.184,16.215-26.785,17.398-35.787l0.023-0.144
			c1.025-4.916,1.449-10.176,1.248-15.565c-0.679-18.192-7.403-34.253-17.989-42.961c-0.543-0.447-1.145-0.825-1.787-1.122
			c-5.25-2.431-9.693-3.612-13.582-3.612c-11.841,0-15.347,9.72-17.441,15.526c-2.127,5.901-3.053,7.246-5.389,7.722
			c-0.087,0.007-0.173,0.01-0.257,0.01c-3.677,0-5.53-6.972-5.929-9.609v-86.52c0.007-2.307,1.932-4.188,4.291-4.188h253.403
			c2.365,0,4.29,1.887,4.29,4.207l0.005,249.633c0,1.119-0.443,2.172-1.247,2.966c-0.799,0.788-1.907,1.24-3.043,1.24
			L177.782,355.348z"/>
		<path fill="#25C60E" d="M431.186,99.3c1.263,0,2.29,0.99,2.29,2.207l0.005,249.633c0,0.579-0.231,1.127-0.653,1.544
			c-0.427,0.421-1.022,0.662-1.637,0.662l-253.408,0.002c-0.623,0-1.205-0.235-1.639-0.663c-0.421-0.416-0.652-0.964-0.652-1.544
			v-90.797c0-1.193,2.091-3.112,3.326-3.594c0.906,0.641,2.058,2.191,3.688,6.707c2.123,5.882,6.075,16.831,19.314,16.831
			c4.188,0,8.909-1.242,14.445-3.806c0.79-0.37,1.531-0.837,2.2-1.388c12.884-10.598,16.872-27.704,18.104-37.012
			c0.005-0.031,0.01-0.063,0.016-0.099c1.055-5.108,1.485-10.492,1.278-16.004c-0.699-18.756-7.696-35.365-18.713-44.428
			c-0.677-0.559-1.425-1.028-2.22-1.396c-5.521-2.556-10.238-3.798-14.424-3.798c-13.245,0-17.199,10.96-19.324,16.853
			c-1.996,5.535-2.64,6.151-3.761,6.405c-0.001,0-0.001,0-0.002,0c-1.519,0-3.354-4.19-3.929-7.767v-86.352
			c0.004-1.212,1.031-2.199,2.291-2.199H431.186 M431.186,95.3H177.782c-3.468,0-6.281,2.768-6.291,6.188v86.665
			c0,0,1.607,11.465,7.929,11.465c0.177,0,0.356-0.009,0.54-0.027c3.647-0.697,4.871-3.156,6.985-9.021
			c2.041-5.658,5.123-14.209,15.562-14.209c3.597,0,7.765,1.123,12.743,3.428c0.486,0.225,0.943,0.512,1.355,0.852
			c10.151,8.351,16.604,23.861,17.261,41.491c0.196,5.235-0.216,10.331-1.22,15.147c-0.011,0.07-0.021,0.14-0.033,0.209
			c-1.148,8.75-4.824,24.761-16.688,34.52c-0.413,0.34-0.868,0.626-1.354,0.854c-4.982,2.307-9.154,3.429-12.75,3.429
			c-10.432,0-13.514-8.541-15.553-14.19c-2.115-5.858-3.898-8.199-6.308-9.279c-0.252-0.113-0.545-0.166-0.866-0.166
			c-2.746-0.001-7.603,3.89-7.603,7.691v90.797c0,1.646,0.663,3.226,1.842,4.39c1.181,1.166,2.78,1.817,4.449,1.817l253.408-0.002
			c1.667,0,3.268-0.651,4.447-1.816c1.18-1.164,1.843-2.742,1.843-4.39l-0.005-249.633C437.476,98.079,434.66,95.3,431.186,95.3
			L431.186,95.3z"/>
	</g>
</g>
</svg>
