<?xml version="1.0" encoding="utf-8"?>
<!-- Generator: Adobe Illustrator 16.0.4, SVG Export Plug-In . SVG Version: 6.00 Build 0)  -->
<!DOCTYPE svg PUBLIC "-//W3C//DTD SVG 1.1//EN" "http://www.w3.org/Graphics/SVG/1.1/DTD/svg11.dtd">
<svg version="1.1" id="Calque_1" xmlns="http://www.w3.org/2000/svg" xmlns:xlink="http://www.w3.org/1999/xlink" x="0px" y="0px"
	 width="267px" height="265px" viewBox="0 0 267 265" enable-background="new 0 0 267 265" xml:space="preserve">
<g>
	<path fill="#CCCCCC" d="M-1.517,8.472c0-3.427,2.806-6.206,6.267-6.206h252.462c3.455,0,6.257,2.768,6.267,6.188v86.659
		c0,0-1.69,12.112-8.437,11.437c-3.635-0.698-4.853-3.156-6.96-9.022c-2.033-5.657-5.104-14.207-15.503-14.207
		c-3.582,0-7.736,1.121-12.697,3.427c-0.483,0.226-0.938,0.512-1.349,0.852c-10.114,8.35-16.541,23.86-17.197,41.488
		c-0.193,5.236,0.213,10.332,1.214,15.146c0.013,0.07,0.021,0.141,0.033,0.211c1.144,8.75,4.808,24.76,16.627,34.519
		c0.412,0.341,0.864,0.625,1.351,0.853c4.965,2.307,9.121,3.429,12.703,3.429c10.391,0,13.461-8.54,15.494-14.19
		c2.105-5.859,3.883-8.199,6.284-9.277c2.399-1.078,8.437,3.277,8.437,7.525v90.791c0,1.646-0.658,3.225-1.834,4.391
		c-1.176,1.164-2.77,1.815-4.433,1.815H4.746c-1.662,0-3.256-0.653-4.432-1.817c-1.175-1.164-1.835-2.742-1.835-4.39L-1.517,8.472z"
		/>
</g>
<g>
	<g>
		<path fill="#FFFFFF" d="M6.746,259.333c-1.144,0-2.218-0.44-3.025-1.239c-0.8-0.793-1.242-1.847-1.242-2.967L2.483,5.506
			C2.483,3.187,4.397,1.3,6.75,1.3h252.462c2.346,0,4.26,1.881,4.267,4.194v86.507c-0.401,2.634-2.258,9.609-5.899,9.61
			c-0.083,0-0.167-0.003-0.253-0.01c-2.322-0.476-3.244-1.82-5.362-7.716c-2.088-5.812-5.581-15.531-17.385-15.531
			c-3.881,0-8.31,1.182-13.54,3.614c-0.641,0.297-1.239,0.676-1.782,1.125c-10.542,8.704-17.242,24.762-17.92,42.954
			c-0.199,5.405,0.223,10.663,1.255,15.629l0.023,0.162l-0.016-0.102c1.176,8.996,4.991,25.608,17.337,35.802
			c0.545,0.449,1.143,0.827,1.779,1.123c5.236,2.434,9.667,3.615,13.548,3.615c11.794,0,15.287-9.707,17.374-15.507
			c2.061-5.731,3.578-7.396,5.224-8.136c1.661,0.01,5.617,3.048,5.617,5.701v90.792c0,1.12-0.441,2.175-1.242,2.97
			c-0.805,0.797-1.88,1.236-3.024,1.236L6.746,259.333z"/>
		<path d="M259.212,3.3c1.246,0,2.263,0.987,2.267,2.188v86.364c-0.51,3.218-2.306,7.755-3.897,7.76
			c-1.108-0.254-1.749-0.875-3.736-6.406c-2.116-5.889-6.056-16.85-19.266-16.85c-4.178,0-8.883,1.243-14.383,3.8
			c-0.796,0.37-1.541,0.84-2.21,1.395c-10.979,9.063-17.949,25.67-18.647,44.425c-0.204,5.532,0.225,10.919,1.275,16.014
			c0.004,0.026,0.008,0.052,0.012,0.078c1.225,9.303,5.195,26.412,18.039,37.017c0.674,0.556,1.417,1.024,2.21,1.395
			c5.504,2.557,10.211,3.8,14.389,3.8c13.199,0,17.14-10.947,19.259-16.836c1.617-4.5,2.76-6.053,3.66-6.696
			c1.228,0.488,3.296,2.403,3.296,3.591v90.792c0,0.583-0.231,1.134-0.648,1.547c-0.429,0.425-1.004,0.659-1.618,0.659
			L6.746,257.333c-0.604,0-1.194-0.241-1.617-0.659c-0.419-0.415-0.65-0.965-0.65-1.547L4.483,5.506C4.483,4.29,5.5,3.3,6.75,3.3
			H259.212 M259.212-0.7H6.75c-3.462,0-6.267,2.779-6.267,6.206L0.479,255.127c0,1.646,0.66,3.225,1.835,4.389
			c1.176,1.164,2.77,1.817,4.432,1.817l252.466,0.001c1.663,0,3.257-0.652,4.433-1.816c1.176-1.166,1.834-2.744,1.834-4.39v-90.792
			c0-3.804-4.838-7.691-7.573-7.691c-0.32,0-0.612,0.053-0.863,0.166c-2.401,1.078-4.179,3.42-6.284,9.278
			c-2.033,5.649-5.104,14.188-15.494,14.188c-3.582,0-7.738-1.121-12.703-3.428c-0.486-0.227-0.938-0.513-1.351-0.853
			c-11.819-9.759-15.483-25.769-16.627-34.519c-0.013-0.069-0.021-0.141-0.033-0.209c-1.001-4.816-1.407-9.912-1.214-15.147
			c0.656-17.628,7.083-33.138,17.197-41.488c0.41-0.34,0.865-0.627,1.349-0.852c4.961-2.306,9.115-3.427,12.697-3.427
			c10.399,0,13.47,8.55,15.503,14.207c2.107,5.866,3.325,8.324,6.96,9.022c0.184,0.019,0.361,0.027,0.537,0.027
			c6.299,0,7.899-11.464,7.899-11.464V5.488C265.469,2.068,262.667-0.7,259.212-0.7L259.212-0.7z"/>
	</g>
</g>
</svg>
