<?xml version="1.0" encoding="utf-8"?>
<!-- Generator: Adobe Illustrator 16.0.4, SVG Export Plug-In . SVG Version: 6.00 Build 0)  -->
<!DOCTYPE svg PUBLIC "-//W3C//DTD SVG 1.1//EN" "http://www.w3.org/Graphics/SVG/1.1/DTD/svg11.dtd">
<svg version="1.1" id="Calque_1" xmlns="http://www.w3.org/2000/svg" xmlns:xlink="http://www.w3.org/1999/xlink" x="0px" y="0px"
	 width="395.133px" height="265.002px" viewBox="102.489 95.3 395.133 265.002"
	 enable-background="new 102.489 95.3 395.133 265.002" xml:space="preserve">
<path fill="#CCCCCC" d="M495.597,224.672c-0.648-17.627-7.014-33.138-17.027-41.486c-0.408-0.34-0.857-0.627-1.34-0.852
	c-4.91-2.307-9.023-3.427-12.57-3.427c-10.299,0-7.543,14.292-9.557,19.948c-2.088,5.867-9.092,2.582-12.689,3.278
	c-0.912,0.177-1.771,0.267-2.559,0.267c-7.396,0-8.355-9.725-8.463-11.262v-86.683c-0.01-3.421-3.033-6.188-6.455-6.188h-251.99
	c-1.646,0-3.225,0.654-4.389,1.818c-1.163,1.163-1.817,2.742-1.817,4.389v90.55c-2,7.688-6.171,7.688-7.767,7.688
	c-0.791,0-1.659-0.091-2.582-0.271c-3.6-0.695-4.808-3.151-6.894-9.01c-2.014-5.651-5.054-14.19-15.345-14.19
	c-3.549,0-7.663,1.122-12.579,3.429c-0.48,0.225-0.93,0.512-1.338,0.852c-11.705,9.759-15.331,25.768-16.462,34.502
	c-0.012,0.074-0.024,0.151-0.036,0.229c-0.978,4.753-1.384,9.779-1.209,14.947c0.001,0.064,0.002,0.127,0.004,0.191
	c0.649,17.629,7.015,33.14,17.03,41.488c0.407,0.34,0.857,0.625,1.338,0.852c4.912,2.306,9.025,3.427,12.572,3.427
	c10.297,0,13.338-8.55,15.352-14.206c2.087-5.867,3.294-8.325,6.893-9.021c0.913-0.177,1.774-0.268,2.559-0.268
	c7.384,0,8.352,9.693,8.459,11.256v87.174c0,3.429,2.78,6.206,6.207,6.206l251.994,0.002c1.646,0,3.225-0.653,4.389-1.818
	c1.164-1.164,1.818-2.742,1.818-4.39V263.92c0.559-2.671,2.154-8.561,8.035-8.561c0.787,0,1.648,0.09,2.562,0.267
	c3.6,0.697,4.809,3.153,6.895,9.013c2.014,5.649,5.057,14.19,15.344,14.19c3.551,0,7.666-1.123,12.582-3.431
	c0.479-0.226,0.93-0.512,1.336-0.852c11.705-9.758,15.332-25.768,16.465-34.518c0.012-0.071,0.023-0.141,0.033-0.211
	C495.386,235.004,495.791,229.909,495.597,224.672z"/>
<g>
	<path fill="#FFFFFF" d="M174.919,355.331c-2.32,0-4.207-1.887-4.207-4.206v-87.241l-0.005-0.068
		c-0.414-6.053-3.4-13.12-10.454-13.12c-0.908,0-1.897,0.103-2.939,0.304c-4.832,0.937-6.339,4.53-8.397,10.314
		c-0.963,2.705-2.159,6.063-4.243,8.642c-2.305,2.851-5.323,4.236-9.225,4.236c-3.244,0-7.078-1.06-11.723-3.238
		c-0.325-0.152-0.63-0.347-0.907-0.577c-9.583-7.99-15.682-22.954-16.312-40.026l-0.002-0.147c-0.171-5.05,0.223-9.92,1.168-14.514
		l0.051-0.312c1.098-8.472,4.593-23.968,15.769-33.286c0.274-0.229,0.58-0.423,0.908-0.577c4.643-2.179,8.479-3.238,11.729-3.238
		c8.879,0,11.527,7.432,13.46,12.858c2.058,5.781,3.564,9.371,8.399,10.307c1.045,0.203,2.042,0.307,2.962,0.307
		c1.809,0,7.312,0,9.701-9.185l0.064-0.248v-90.808c0-1.124,0.438-2.18,1.232-2.974c0.795-0.795,1.852-1.233,2.975-1.233h251.992
		c2.365,0,4.447,1.96,4.455,4.195v86.744l0.005,0.068c0.415,6.055,3.402,13.126,10.456,13.126c0.912,0,1.901-0.102,2.939-0.303
		c4.832-0.936,6.339-4.529,8.396-10.316c1.935-5.435,4.584-12.875,13.469-12.875c3.247,0,7.082,1.059,11.723,3.237
		c0.325,0.151,0.628,0.345,0.905,0.576c9.585,7.991,15.683,22.954,16.312,40.026c0.188,5.07-0.204,10.006-1.163,14.669l-0.045,0.271
		c-1.103,8.5-4.599,24.006-15.776,33.324c-0.277,0.231-0.582,0.426-0.906,0.579c-4.643,2.179-8.479,3.238-11.729,3.238
		c-8.88,0-11.526-7.434-13.46-12.861c-2.058-5.779-3.564-9.369-8.398-10.305c-1.042-0.201-2.032-0.303-2.942-0.303
		c-3.594,0-8.245,1.762-9.993,10.152l-0.042,0.202v90.378c0,1.123-0.438,2.18-1.234,2.976c-0.795,0.795-1.85,1.232-2.973,1.232
		L174.919,355.331z"/>
	<path fill="#F41111" d="M426.916,99.3c1.281,0,2.451,1.05,2.455,2.188v86.683v0.137l0.01,0.137
		c0.758,11.063,7.182,14.989,12.451,14.989c1.04,0,2.156-0.114,3.318-0.34c6.2-1.199,7.998-6.256,9.902-11.609
		c2.328-6.541,4.66-11.545,11.584-11.545c2.947,0,6.504,0.997,10.884,3.053c0.163,0.076,0.318,0.176,0.465,0.298
		c9.155,7.633,14.984,22.049,15.594,38.562c0.181,4.911-0.197,9.686-1.124,14.193l-0.025,0.123l-0.018,0.124l-0.02,0.121
		l-0.011,0.067l-0.009,0.067c-1.052,8.123-4.407,23.077-15.062,31.959c-0.146,0.123-0.307,0.226-0.471,0.303
		c-4.374,2.053-7.934,3.051-10.883,3.051c-6.919,0-9.249-4.998-11.575-11.532c-1.904-5.347-3.702-10.397-9.905-11.598
		c-1.166-0.225-2.283-0.339-3.32-0.339c-3.55,0-9.822,1.525-11.951,11.745l-0.084,0.403v0.412v90.172c0,0.589-0.23,1.143-0.65,1.562
		c-0.416,0.416-0.969,0.646-1.557,0.646l-251.995-0.002c-1.217,0-2.207-0.989-2.207-2.206v-87.173v-0.137l-0.009-0.136
		c-0.756-11.061-7.179-14.984-12.45-14.984c-1.036,0-2.152,0.114-3.32,0.341c-6.197,1.201-7.996,6.256-9.902,11.613
		c-2.328,6.54-4.659,11.542-11.581,11.542c-2.944,0-6.5-0.997-10.874-3.049c-0.17-0.08-0.331-0.182-0.474-0.302
		c-9.156-7.634-14.985-22.051-15.594-38.537l-0.002-0.132l0-0.037l-0.001-0.037c-0.164-4.854,0.216-9.567,1.129-14.006l0.017-0.084
		l0.014-0.084l0.021-0.133l0.015-0.092l0.01-0.064l0.008-0.064c1.051-8.117,4.405-23.062,15.055-31.941
		c0.144-0.12,0.306-0.223,0.478-0.304c4.372-2.053,7.93-3.05,10.879-3.05c6.918,0,9.249,4.997,11.577,11.531
		c1.904,5.347,3.702,10.397,9.898,11.597c1.173,0.228,2.299,0.344,3.346,0.344c7.321,0,10.369-5.809,11.637-10.682l0.129-0.495
		v-0.512v-90.552c0-0.589,0.229-1.143,0.647-1.56c0.417-0.417,0.971-0.647,1.56-0.647H426.916 M426.916,95.3H174.924
		c-1.646,0-3.225,0.654-4.389,1.818c-1.164,1.163-1.818,2.742-1.818,4.389v90.552c-2,7.688-6.171,7.688-7.766,7.688
		c-0.792,0-1.659-0.091-2.582-0.271c-3.6-0.696-4.808-3.152-6.894-9.012c-2.013-5.65-5.054-14.189-15.345-14.189
		c-3.549,0-7.663,1.121-12.579,3.429c-0.48,0.226-0.93,0.511-1.338,0.851c-11.705,9.76-15.331,25.769-16.462,34.502
		c-0.012,0.075-0.024,0.153-0.036,0.229c-0.978,4.753-1.384,9.779-1.209,14.947c0.001,0.062,0.002,0.127,0.004,0.191
		c0.65,17.629,7.015,33.139,17.03,41.489c0.406,0.338,0.856,0.625,1.337,0.851c4.912,2.305,9.025,3.428,12.572,3.428
		c10.298,0,13.338-8.551,15.352-14.207c2.087-5.866,3.295-8.324,6.893-9.021c0.913-0.177,1.774-0.268,2.559-0.268
		c7.384,0,8.352,9.693,8.459,11.257v87.173c0,3.429,2.78,6.206,6.207,6.206l251.995,0.002c1.645,0,3.223-0.653,4.387-1.818
		c1.164-1.164,1.82-2.741,1.82-4.39v-90.172c0.557-2.672,2.152-8.561,8.035-8.561c0.787,0,1.646,0.09,2.562,0.267
		c3.6,0.696,4.809,3.153,6.895,9.012c2.012,5.649,5.055,14.19,15.344,14.19c3.551,0,7.666-1.122,12.582-3.43
		c0.479-0.226,0.928-0.513,1.334-0.852c11.707-9.76,15.334-25.77,16.467-34.518c0.012-0.071,0.023-0.142,0.033-0.211
		c0.99-4.814,1.396-9.91,1.203-15.146c-0.65-17.627-7.016-33.139-17.029-41.487c-0.408-0.341-0.855-0.627-1.338-0.852
		c-4.912-2.306-9.025-3.427-12.572-3.427c-10.297,0-13.34,8.55-15.354,14.205c-2.086,5.867-3.293,8.326-6.893,9.022
		c-0.912,0.177-1.771,0.267-2.559,0.267c-7.396,0-8.355-9.725-8.461-11.263v-86.683C433.359,98.067,430.333,95.3,426.916,95.3
		L426.916,95.3z"/>
</g>
</svg>
