<?xml version="1.0" encoding="utf-8"?>
<!-- Generator: Adobe Illustrator 16.0.0, SVG Export Plug-In . SVG Version: 6.00 Build 0)  -->
<!DOCTYPE svg PUBLIC "-//W3C//DTD SVG 1.1//EN" "http://www.w3.org/Graphics/SVG/1.1/DTD/svg11.dtd">
<svg version="1.1" xmlns="http://www.w3.org/2000/svg" xmlns:xlink="http://www.w3.org/1999/xlink" x="0px" y="0px" width="269px"
	 height="265.003px" viewBox="0 -0.001 269 265.003" enable-background="new 0 -0.001 269 265.003" xml:space="preserve">
<g id="Calque_1">
	<g>
		<path fill="#CCCCCC" d="M265.985,9.157c0-3.428-2.813-6.207-6.289-6.207H6.292c-3.467,0-6.28,2.768-6.291,6.189v86.665
			c0,0,1.696,12.111,8.47,11.437c3.646-0.696,4.87-3.155,6.985-9.021c2.041-5.658,5.123-14.207,15.562-14.207
			c3.596,0,7.764,1.121,12.741,3.426c0.488,0.227,0.943,0.514,1.354,0.854c10.15,8.352,16.604,23.861,17.263,41.49
			c0.192,5.234-0.215,10.332-1.222,15.146c-0.01,0.067-0.021,0.141-0.03,0.209c-1.147,8.75-4.824,24.76-16.688,34.521
			c-0.412,0.34-0.867,0.625-1.354,0.853c-4.98,2.309-9.154,3.43-12.75,3.43c-10.432,0-13.514-8.541-15.555-14.189
			c-2.113-5.859-3.896-8.199-6.307-9.279c-2.408-1.078-8.468,3.277-8.468,7.525v90.797c0,1.646,0.662,3.225,1.843,4.389
			c1.18,1.166,2.778,1.82,4.446,1.82l253.407-0.004c1.666,0,3.271-0.65,4.447-1.816c1.18-1.164,1.842-2.739,1.842-4.389
			L265.985,9.157z"/>
	</g>
	<g>
		<linearGradient id="SVGID_1_" gradientUnits="userSpaceOnUse" x1="3.0093" y1="131.0254" x2="268.9985" y2="131.0254">
			<stop  offset="0" style="stop-color:#5EA592"/>
			<stop  offset="1" style="stop-color:#5EA15E"/>
		</linearGradient>
		<path fill="url(#SVGID_1_)" d="M268.997,6.206c0-3.428-2.813-6.207-6.289-6.207H9.303c-3.469,0-6.281,2.768-6.291,6.188v86.666
			c0,0,1.697,12.113,8.469,11.438c3.646-0.697,4.871-3.156,6.984-9.021c2.041-5.657,5.123-14.209,15.563-14.209
			c3.598,0,7.766,1.123,12.742,3.429c0.485,0.226,0.942,0.513,1.354,0.853c10.151,8.352,16.604,23.86,17.262,41.491
			c0.195,5.234-0.217,10.33-1.221,15.146c-0.011,0.07-0.021,0.142-0.033,0.209c-1.147,8.75-4.823,24.763-16.688,34.521
			c-0.412,0.341-0.866,0.628-1.354,0.854c-4.982,2.308-9.154,3.429-12.75,3.429c-10.432,0-13.514-8.541-15.553-14.188
			c-2.115-5.857-3.898-8.199-6.309-9.279c-2.41-1.078-8.47,3.279-8.47,7.525v90.797c0,1.646,0.662,3.227,1.843,4.391
			c1.182,1.166,2.778,1.816,4.448,1.816l253.407-0.002c1.668,0,3.27-0.65,4.447-1.816c1.182-1.164,1.844-2.742,1.844-4.391
			L268.997,6.206z"/>
	</g>
</g>
<g id="Calque_2">
	<g>
		
			<radialGradient id="SVGID_2_" cx="187.3345" cy="220.3369" r="214.5832" fx="167.8859" fy="123.2862" gradientUnits="userSpaceOnUse">
			<stop  offset="0" style="stop-color:#FFFFFF;stop-opacity:0.2"/>
			<stop  offset="1" style="stop-color:#FFFFFF;stop-opacity:0"/>
		</radialGradient>
		<path fill="url(#SVGID_2_)" d="M268.997,6.206c0-3.428-2.813-6.207-6.289-6.207H9.303c-3.469,0-6.281,2.768-6.291,6.188v86.666
			c0,0,1.697,12.113,8.469,11.438c3.646-0.697,4.871-3.156,6.984-9.021c2.041-5.657,5.123-14.209,15.563-14.209
			c3.598,0,7.766,1.123,12.742,3.429c0.485,0.226,0.942,0.513,1.354,0.853c10.151,8.352,16.604,23.86,17.262,41.491
			c0.195,5.234-0.217,10.33-1.221,15.146c-0.011,0.07-0.021,0.142-0.033,0.209c-1.147,8.75-4.823,24.763-16.688,34.521
			c-0.412,0.341-0.866,0.628-1.354,0.854c-4.982,2.308-9.154,3.429-12.75,3.429c-10.432,0-13.514-8.541-15.553-14.188
			c-2.115-5.857-3.898-8.199-6.309-9.279c-2.41-1.078-8.47,3.279-8.47,7.525v90.797c0,1.646,0.662,3.227,1.843,4.391
			c1.182,1.166,4.448,1.816,4.448,1.816C85.667,91.668,268.997,6.206,268.997,6.206z"/>
	</g>
</g>
</svg>
