<?xml version="1.0" encoding="utf-8"?>
<!-- Generator: Adobe Illustrator 16.0.0, SVG Export Plug-In . SVG Version: 6.00 Build 0)  -->
<!DOCTYPE svg PUBLIC "-//W3C//DTD SVG 1.1//EN" "http://www.w3.org/Graphics/SVG/1.1/DTD/svg11.dtd">
<svg version="1.1" xmlns="http://www.w3.org/2000/svg" xmlns:xlink="http://www.w3.org/1999/xlink" x="0px" y="0px"
	 width="395.383px" height="265.002px" viewBox="8.84 1.649 395.383 265.002" enable-background="new 8.84 1.649 395.383 265.002"
	 xml:space="preserve">
<g id="Calque_1">
	<path fill="#CCCCCC" d="M401.947,131.022c-0.647-17.627-7.014-33.138-17.026-41.485c-0.408-0.34-0.857-0.627-1.341-0.853
		c-4.909-2.308-9.022-3.427-12.569-3.427c-10.299,0-7.543,14.291-9.558,19.947c-2.088,5.867-9.092,2.582-12.688,3.278
		c-0.912,0.177-1.771,0.267-2.56,0.267c-7.396,0-8.354-9.725-8.463-11.262V10.806c-0.01-3.421-3.032-6.188-6.455-6.188H79.297
		c-1.646,0-3.225,0.654-4.389,1.818c-1.163,1.163-1.817,2.742-1.817,4.389v90.55c-2,7.688-6.171,7.688-7.767,7.688
		c-0.791,0-1.659-0.091-2.582-0.271c-3.6-0.694-4.808-3.15-6.894-9.01c-2.014-5.65-5.054-14.189-15.345-14.189
		c-3.549,0-7.663,1.121-12.579,3.429c-0.48,0.226-0.93,0.513-1.338,0.853c-11.705,9.758-15.331,25.768-16.462,34.502
		c-0.012,0.074-0.024,0.15-0.036,0.229c-0.978,4.753-1.384,9.779-1.209,14.947c0.001,0.064,0.002,0.127,0.004,0.191
		c0.649,17.629,7.015,33.139,17.03,41.487c0.407,0.341,0.857,0.625,1.338,0.853c4.912,2.306,9.025,3.427,12.572,3.427
		c10.297,0,13.338-8.55,15.352-14.206c2.087-5.867,3.294-8.325,6.893-9.021c0.913-0.177,1.774-0.268,2.559-0.268
		c7.384,0,8.352,9.693,8.459,11.256v87.174c0,3.43,2.78,6.206,6.207,6.206l251.994,0.003c1.646,0,3.226-0.654,4.39-1.818
		s1.817-2.742,1.817-4.391v-90.173c0.56-2.671,2.154-8.562,8.035-8.562c0.787,0,1.648,0.09,2.563,0.268
		c3.6,0.697,4.809,3.152,6.895,9.014c2.015,5.648,5.058,14.189,15.345,14.189c3.551,0,7.665-1.123,12.581-3.432
		c0.479-0.226,0.931-0.512,1.337-0.852c11.704-9.758,15.332-25.768,16.465-34.518c0.012-0.071,0.022-0.141,0.032-0.211
		C401.736,141.354,402.142,136.26,401.947,131.022z"/>
	<linearGradient id="SVGID_1_" gradientUnits="userSpaceOnUse" x1="10.8169" y1="132.6665" x2="403.9736" y2="132.6665">
		<stop  offset="0" style="stop-color:#F06060"/>
		<stop  offset="1" style="stop-color:#F01560"/>
	</linearGradient>
	<path fill="url(#SVGID_1_)" d="M403.927,128.056c-0.65-17.627-7.017-33.14-17.029-41.487c-0.408-0.341-0.854-0.627-1.338-0.852
		c-4.912-2.307-9.025-3.428-12.572-3.428c-10.297,0-13.34,8.551-15.354,14.205c-2.086,5.867-3.293,8.326-6.894,9.022
		c-0.912,0.177-1.771,0.267-2.559,0.267c-7.396,0-8.355-9.725-8.461-11.263V7.837c-0.012-3.421-3.037-6.188-6.455-6.188H81.274
		c-1.646,0-3.225,0.654-4.389,1.818c-1.164,1.163-1.818,2.742-1.818,4.389v90.552c-2,7.688-6.171,7.688-7.766,7.688
		c-0.792,0-1.659-0.091-2.582-0.271c-3.6-0.697-4.808-3.152-6.894-9.013c-2.013-5.649-5.054-14.188-15.345-14.188
		c-3.549,0-7.663,1.121-12.579,3.429c-0.48,0.226-0.93,0.511-1.338,0.851c-11.705,9.76-15.331,25.77-16.462,34.502
		c-0.012,0.075-0.024,0.153-0.036,0.229c-0.978,4.753-1.384,9.778-1.209,14.946c0.001,0.063,0.002,0.127,0.004,0.191
		c0.65,17.629,7.015,33.139,17.03,41.489c0.406,0.338,0.856,0.625,1.337,0.851c4.912,2.305,9.025,3.428,12.572,3.428
		c10.298,0,13.338-8.551,15.352-14.207c2.087-5.865,3.295-8.323,6.893-9.021c0.913-0.177,1.774-0.269,2.559-0.269
		c7.384,0,8.352,9.693,8.459,11.258v87.173c0,3.429,2.78,6.206,6.207,6.206l251.995,0.002c1.645,0,3.223-0.652,4.387-1.818
		c1.164-1.164,1.82-2.74,1.82-4.39v-90.172c0.557-2.673,2.152-8.562,8.035-8.562c0.787,0,1.646,0.09,2.562,0.268
		c3.601,0.695,4.81,3.152,6.896,9.012c2.012,5.648,5.055,14.189,15.344,14.189c3.551,0,7.666-1.121,12.582-3.43
		c0.479-0.226,0.928-0.513,1.334-0.852c11.707-9.76,15.334-25.77,16.467-34.518c0.012-0.071,0.023-0.143,0.033-0.211
		C403.714,138.388,404.119,133.291,403.927,128.056z"/>
</g>
<g id="Calque_2">
	<g>
		<defs>
			<path id="SVGID_2_" d="M404.177,128.306c-0.65-17.627-7.017-33.14-17.029-41.487c-0.408-0.341-0.854-0.627-1.338-0.852
				c-4.912-2.307-9.025-3.428-12.572-3.428c-10.297,0-13.34,8.551-15.354,14.205c-2.086,5.867-3.293,8.326-6.894,9.022
				c-0.912,0.177-1.771,0.267-2.559,0.267c-7.396,0-8.355-9.725-8.461-11.263V8.087c-0.012-3.421-3.037-6.188-6.455-6.188H81.524
				c-1.646,0-3.225,0.654-4.389,1.818c-1.164,1.163-1.818,2.742-1.818,4.389v90.552c-2,7.688-6.171,7.688-7.766,7.688
				c-0.792,0-1.659-0.091-2.582-0.271c-3.6-0.697-4.808-3.152-6.894-9.013c-2.013-5.649-5.054-14.188-15.345-14.188
				c-3.549,0-7.663,1.121-12.579,3.429c-0.48,0.226-0.93,0.511-1.338,0.851c-11.705,9.76-15.331,25.77-16.462,34.502
				c-0.012,0.075-0.024,0.153-0.036,0.229c-0.978,4.753-1.384,9.778-1.209,14.946c0.001,0.063,0.002,0.127,0.004,0.191
				c0.65,17.629,7.015,33.139,17.03,41.489c0.406,0.338,0.856,0.625,1.337,0.851c4.912,2.305,9.025,3.428,12.572,3.428
				c10.298,0,13.338-8.551,15.352-14.207c2.087-5.865,3.295-8.323,6.893-9.021c0.913-0.177,1.774-0.269,2.559-0.269
				c7.384,0,8.352,9.693,8.459,11.258v87.173c0,3.429,2.78,6.206,6.207,6.206l251.995,0.002c1.645,0,3.223-0.652,4.387-1.818
				c1.164-1.164,1.82-2.74,1.82-4.39v-90.172c0.557-2.673,2.152-8.562,8.035-8.562c0.787,0,1.646,0.09,2.562,0.268
				c3.601,0.695,4.81,3.152,6.896,9.012c2.012,5.648,5.055,14.189,15.344,14.189c3.551,0,7.666-1.121,12.582-3.43
				c0.479-0.226,0.928-0.513,1.334-0.852c11.707-9.76,15.334-25.77,16.467-34.518c0.012-0.071,0.023-0.143,0.033-0.211
				C403.964,138.638,404.369,133.541,404.177,128.306z"/>
		</defs>
		<clipPath id="SVGID_3_">
			<use xlink:href="#SVGID_2_"  overflow="visible"/>
		</clipPath>
		<radialGradient id="SVGID_4_" cx="160.417" cy="55.2778" r="189.1026" fx="343.0515" fy="6.2428" gradientUnits="userSpaceOnUse">
			<stop  offset="0" style="stop-color:#FFFFFF;stop-opacity:0.3"/>
			<stop  offset="1" style="stop-color:#FFFFFF;stop-opacity:0"/>
		</radialGradient>
		<path opacity="0.6" clip-path="url(#SVGID_3_)" fill="url(#SVGID_4_)" d="M351.417-9.648c0,0-211,88-278,283s-288-126-288-126
			l24-347l529-16L351.417-9.648z"/>
	</g>
</g>
</svg>
