<?xml version="1.0" encoding="utf-8"?>
<!-- Generator: Adobe Illustrator 16.0.0, SVG Export Plug-In . SVG Version: 6.00 Build 0)  -->
<!DOCTYPE svg PUBLIC "-//W3C//DTD SVG 1.1//EN" "http://www.w3.org/Graphics/SVG/1.1/DTD/svg11.dtd">
<svg version="1.1" xmlns="http://www.w3.org/2000/svg" xmlns:xlink="http://www.w3.org/1999/xlink" x="0px" y="0px" width="802.6px"
	 height="618.6px" viewBox="0 0 802.6 618.6" enable-background="new 0 0 802.6 618.6" xml:space="preserve">
<g id="Layer_1">
	<g>
		
			<linearGradient id="SVGID_1_" gradientUnits="userSpaceOnUse" x1="3382.4722" y1="580.5068" x2="3765.5034" y2="580.5068" gradientTransform="matrix(-0.1692 0 0 1 1313.0179 0)">
			<stop  offset="0" style="stop-color:#FF5B33"/>
			<stop  offset="0.4062" style="stop-color:#FD5A33"/>
			<stop  offset="0.5525" style="stop-color:#F65831"/>
			<stop  offset="0.6568" style="stop-color:#EB532E"/>
			<stop  offset="0.7412" style="stop-color:#DA4D29"/>
			<stop  offset="0.8134" style="stop-color:#C44524"/>
			<stop  offset="0.8774" style="stop-color:#A83B1D"/>
			<stop  offset="0.9353" style="stop-color:#882F14"/>
			<stop  offset="0.9867" style="stop-color:#64210B"/>
			<stop  offset="1" style="stop-color:#591D08"/>
		</linearGradient>
		<polygon fill="url(#SVGID_1_)" points="675.9,613.4 740.7,613.4 717.7,580.8 740.7,547.6 675.9,547.6 		"/>
		
			<linearGradient id="SVGID_2_" gradientUnits="userSpaceOnUse" x1="7866.4194" y1="580.5068" x2="8249.4473" y2="580.5068" gradientTransform="matrix(0.1692 0 0 1 -1279.4843 0)">
			<stop  offset="0" style="stop-color:#FF5B33"/>
			<stop  offset="0.4062" style="stop-color:#FD5A33"/>
			<stop  offset="0.5525" style="stop-color:#F65831"/>
			<stop  offset="0.6568" style="stop-color:#EB532E"/>
			<stop  offset="0.7412" style="stop-color:#DA4D29"/>
			<stop  offset="0.8134" style="stop-color:#C44524"/>
			<stop  offset="0.8774" style="stop-color:#A83B1D"/>
			<stop  offset="0.9353" style="stop-color:#882F14"/>
			<stop  offset="0.9867" style="stop-color:#64210B"/>
			<stop  offset="1" style="stop-color:#591D08"/>
		</linearGradient>
		<polygon fill="url(#SVGID_2_)" points="116.3,613.4 51.5,613.4 74.5,580.8 51.5,547.6 116.3,547.6 		"/>
		
			<linearGradient id="SVGID_3_" gradientUnits="userSpaceOnUse" x1="670.4272" y1="575.1074" x2="696.6587" y2="575.1074" gradientTransform="matrix(-1 0 0 1 1372.5537 0)">
			<stop  offset="0" style="stop-color:#702C00"/>
			<stop  offset="1" style="stop-color:#D72C00"/>
		</linearGradient>
		<polygon fill="url(#SVGID_3_)" points="675.9,613.4 702.1,602.6 702.1,536.8 675.9,547.6 		"/>
		
			<linearGradient id="SVGID_4_" gradientUnits="userSpaceOnUse" x1="1429.1089" y1="575.1074" x2="1455.3413" y2="575.1074" gradientTransform="matrix(1 0 0 1 -1339.0195 0)">
			<stop  offset="0" style="stop-color:#702C00"/>
			<stop  offset="1" style="stop-color:#D72C00"/>
		</linearGradient>
		<polygon fill="url(#SVGID_4_)" points="116.3,613.4 90.1,602.6 90.1,536.8 116.3,547.6 		"/>
		<linearGradient id="SVGID_5_" gradientUnits="userSpaceOnUse" x1="396.1851" y1="602.6426" x2="396.1851" y2="536.7715">
			<stop  offset="0" style="stop-color:#EB3C00"/>
			<stop  offset="1" style="stop-color:#EB2C00"/>
		</linearGradient>
		<rect x="90.1" y="536.8" fill="url(#SVGID_5_)" width="612.2" height="65.9"/>
	</g>
	<g>
		<g>
			<g>
				
					<rect x="516" y="41" transform="matrix(-0.7072 0.7071 -0.7071 -0.7072 923.0254 -289.4182)" fill="#FBB830" width="10.8" height="10.8"/>
			</g>
			<g>
				
					<rect x="669.8" y="105.5" transform="matrix(-0.7072 0.7071 -0.7071 -0.7072 1231.0647 -288.1159)" fill="#FBB830" width="10.8" height="10.8"/>
			</g>
			<g>
				
					<rect x="588.6" y="10.6" transform="matrix(-0.7071 0.7071 -0.7071 -0.7071 1025.4402 -392.7193)" fill="#FBB830" width="10.8" height="10.8"/>
			</g>
			<g>
				
					<rect x="53.8" y="438.4" transform="matrix(-0.7072 0.7071 -0.7071 -0.7072 414.9553 715.8347)" fill="#FBB830" width="10.8" height="10.8"/>
			</g>
			<g>
				
					<rect x="766.2" y="180.9" transform="matrix(-0.7071 0.7071 -0.7071 -0.7071 1449.0039 -227.5836)" fill="#FBB830" width="10.8" height="10.8"/>
			</g>
			<g>
				
					<rect x="192.9" y="14.1" transform="matrix(-0.7071 0.7071 -0.7071 -0.7071 352.3119 -106.9812)" fill="#FBB830" width="10.8" height="10.8"/>
			</g>
			<g>
				
					<rect x="280.4" y="165" transform="matrix(-0.7071 0.7071 -0.7071 -0.7071 608.3931 88.884)" fill="#FBB830" width="10.8" height="10.8"/>
			</g>
			<g>
				
					<rect x="372.8" y="341.6" transform="matrix(-0.7071 0.7071 -0.7071 -0.7071 891.062 324.8778)" fill="#FBB830" width="10.8" height="10.8"/>
			</g>
		</g>
		<g>
			<g>
				
					<rect x="496.1" y="146.4" transform="matrix(-0.7071 0.7071 -0.7071 -0.7071 963.3933 -95.4988)" fill="#00A79D" width="10.8" height="10.8"/>
			</g>
			<g>
				
					<rect x="622" y="381.5" transform="matrix(-0.7071 0.7072 -0.7072 -0.7071 1344.5895 216.8462)" fill="#00A79D" width="10.8" height="10.8"/>
			</g>
			<g>
				
					<rect x="388" y="6.4" transform="matrix(-0.7071 0.7071 -0.7071 -0.7071 680.0121 -258.0159)" fill="#00A79D" width="10.8" height="10.8"/>
			</g>
			<g>
				
					<rect x="789.5" y="307.6" transform="matrix(-0.7071 0.7072 -0.7072 -0.7071 1578.3562 -27.8513)" fill="#00A79D" width="10.8" height="10.8"/>
			</g>
			<g>
				
					<rect x="3.2" y="164.2" transform="matrix(-0.7072 0.707 -0.707 -0.7072 134.6441 283.5096)" fill="#00A79D" width="10.8" height="10.8"/>
			</g>
			<g>
				
					<rect x="18.5" y="512.8" transform="matrix(-0.7072 0.7071 -0.7071 -0.7072 407.1915 867.6772)" fill="#00A79D" width="10.8" height="10.8"/>
			</g>
		</g>
		<g>
			<g>
				
					<rect x="669.8" y="492.3" transform="matrix(-0.7071 -0.7071 0.7071 -0.7071 800.7274 1327.0256)" fill="#F96BA2" width="10.8" height="10.8"/>
			</g>
			<g>
				
					<rect x="138.9" y="351.8" transform="matrix(-0.7071 -0.7071 0.7071 -0.7071 -6.2245 711.9091)" fill="#F96BA2" width="10.8" height="10.8"/>
			</g>
			<g>
				
					<rect x="234.4" y="139.2" transform="matrix(-0.7071 -0.7071 0.7071 -0.7071 307.1161 416.3671)" fill="#F96BA2" width="10.8" height="10.8"/>
			</g>
			<g>
				
					<rect x="2.2" y="350.5" transform="matrix(-0.7071 -0.7071 0.7071 -0.7071 -238.6087 613.0064)" fill="#F96BA2" width="10.8" height="10.8"/>
			</g>
			<g>
				
					<rect x="523.4" y="227" transform="matrix(-0.7071 -0.7072 0.7072 -0.7071 738.312 770.6433)" fill="#F96BA2" width="10.8" height="10.8"/>
			</g>
			<g>
				
					<rect x="677.4" y="270.5" transform="matrix(-0.7072 -0.707 0.707 -0.7072 970.7045 953.7621)" fill="#F96BA2" width="10.8" height="10.8"/>
			</g>
		</g>
		<g>
			<g>
				
					<rect x="158.8" y="435.8" transform="matrix(-0.7071 -0.7072 0.7072 -0.7071 -31.5866 869.2687)" fill="#ED1C24" width="10.8" height="10.8"/>
			</g>
			<g>
				
					<rect x="387.8" y="492.1" transform="matrix(-0.7071 -0.7072 0.7072 -0.7071 319.4539 1127.3693)" fill="#ED1C24" width="10.8" height="10.8"/>
			</g>
			<g>
				
					<rect x="34.8" y="285.4" transform="matrix(-0.707 -0.7072 0.7072 -0.707 -137.1183 524.8862)" fill="#ED1C24" width="10.8" height="10.8"/>
			</g>
			<g>
				
					<rect x="92.4" y="40.3" transform="matrix(-0.7071 -0.7071 0.7071 -0.7071 134.6088 147.2119)" fill="#ED1C24" width="10.8" height="10.8"/>
			</g>
			<g>
				
					<rect x="689.8" y="2.2" transform="matrix(-0.7072 -0.7071 0.7071 -0.7072 1181.3926 504.5996)" fill="#ED1C24" width="10.8" height="10.8"/>
			</g>
			<g>
				
					<rect x="758.6" y="376.3" transform="matrix(-0.7072 -0.7071 0.7071 -0.7072 1034.322 1191.9022)" fill="#ED1C24" width="10.8" height="10.8"/>
			</g>
		</g>
	</g>
	<g>
		<g>
			<ellipse fill="#A7C6C3" cx="307.2" cy="489.1" rx="66" ry="9.5"/>
		</g>
		<g>
			<g>
				<g>
					<g>
						<g>
							<path fill="#FBB830" d="M337.6,458.5c4.1,7.5,13.6,10.3,21.1,6.2l0,0c7.5-4.1,10.3-13.6,6.2-21.1l-13-24.2
								c-4.1-7.5-13.6-10.3-21.1-6.2l0,0c-7.5,4.1-10.3,13.6-6.2,21.1L337.6,458.5z"/>
						</g>
						<g>
							<g>
								<path fill="#FB801C" d="M346.8,440.8l-11.4-21.1c-0.8-1.5-1.3-3.2-1.3-4.8c6-2.2,12.8,0.3,15.9,6l12.8,23.6
									c-0.3,0.2-0.6,0.4-1,0.6C356.5,448.2,349.7,446.2,346.8,440.8z"/>
							</g>
							<g>
								<path fill="#FB801C" d="M330.5,416.9c1.3,0.9,2.5,2.2,3.3,3.7l11.4,21.1c2.9,5.4,1,12.1-4.4,15c-0.3,0.2-0.7,0.4-1,0.5
									L327,433.6C323.9,427.9,325.5,420.8,330.5,416.9z"/>
							</g>
						</g>
						<g>
							<g>
								<path fill="#F5F5F5" d="M357.2,461.8c-6.2,3.4-14,1.2-17.6-4.8c2.8-2.9,6.4-5.7,10.6-8c4.2-2.3,8.4-3.8,12.3-4.6
									C365.8,450.7,363.4,458.4,357.2,461.8z"/>
							</g>
						</g>
						<g>
							<g>
								<circle fill="#56050F" cx="353.9" cy="442.4" r="2.3"/>
							</g>
							<g>
								<circle fill="#56050F" cx="342.3" cy="448.7" r="2.3"/>
							</g>
							<g>
								<path fill="#56050F" d="M347.8,436c0.6,1.1,2,1.5,3.1,0.9c1.1-0.6,1.5-2,0.9-3.1c-0.6-1.1-2-1.5-3.1-0.9
									C347.6,433.5,347.2,434.9,347.8,436z"/>
							</g>
							<g>
								<circle fill="#56050F" cx="338.2" cy="441.3" r="2.3"/>
							</g>
							<g>
								<g>
									<path fill="#F5F5F5" d="M341.7,449.4c-0.3-0.3-0.4-0.7-0.2-1.1l2.9-5.7l-6.3-0.5c-0.4,0-0.7-0.3-0.8-0.7
										c-0.1-0.4,0.1-0.8,0.5-1l11-6c0.3-0.2,0.8-0.1,1.1,0.1c0.3,0.3,0.4,0.7,0.2,1.1l-2.7,5.3l6.6,0.5c0.4,0,0.7,0.3,0.8,0.7
										c0.1,0.4-0.1,0.8-0.5,1l-11.5,6.3C342.4,449.7,342,449.6,341.7,449.4z M346.4,442.8l-1.9,3.7l6.3-3.4L346.4,442.8z
										 M341.4,440.6l3.9,0.3l1.7-3.4L341.4,440.6z"/>
								</g>
							</g>
						</g>
						<g>
							<path fill="#56050F" d="M338.1,433.7l1.6-0.9c4.8-1.3,5.8-9.2,4.5-14l0.8-1.1c-1.3-4.8-5.6-5.2-10.4-3.9l-0.7,1.3
								C324,414,322.1,433.5,338.1,433.7z"/>
						</g>
					</g>
					<g>
						<g>
							<path fill="#FBB830" d="M276.7,461.1c-3.3,7.9-12.4,11.7-20.4,8.3l0,0c-7.9-3.3-11.7-12.4-8.3-20.4l10.4-25.4
								c3.3-7.9,12.4-11.7,20.4-8.3l0,0c7.9,3.3,11.7,12.4,8.3,20.4L276.7,461.1z"/>
						</g>
						<g>
							<g>
								<path fill="#FB801C" d="M265.8,444.5l9.1-22.2c0.7-1.6,0.9-3.3,0.8-4.9c-6.2-1.5-12.7,1.6-15.2,7.7l-10.3,24.8
									c0.3,0.2,0.7,0.3,1,0.5C256.9,452.8,263.4,450.1,265.8,444.5z"/>
							</g>
							<g>
								<path fill="#FB801C" d="M279.5,419c-1.2,1.1-2.2,2.4-2.9,4l-9.1,22.2c-2.4,5.6,0.3,12.1,5.9,14.5c0.4,0.2,0.7,0.3,1.1,0.4
									l10.3-24.8C287.2,429.2,284.9,422.3,279.5,419z"/>
							</g>
						</g>
						<g>
							<g>
								<path fill="#F5F5F5" d="M257.6,466.4c6.5,2.7,14-0.2,17-6.6c-3.1-2.6-6.9-5-11.4-6.9c-4.4-1.8-8.8-2.9-12.7-3.3
									C247.9,456.2,251.1,463.7,257.6,466.4z"/>
							</g>
						</g>
						<g>
							<g>
								<circle fill="#56050F" cx="258.9" cy="446.8" r="2.3"/>
							</g>
							<g>
								<path fill="#56050F" d="M273.1,452.7c-0.5,1.1-1.8,1.7-3,1.2c-1.2-0.5-1.7-1.8-1.2-3c0.5-1.2,1.8-1.7,3-1.2
									C273.1,450.2,273.6,451.6,273.1,452.7z"/>
							</g>
							<g>
								<path fill="#56050F" d="M264.3,439.8c-0.5,1.2-1.8,1.7-3,1.2c-1.2-0.5-1.7-1.8-1.2-3c0.5-1.2,1.8-1.7,3-1.2
									C264.2,437.3,264.7,438.6,264.3,439.8z"/>
							</g>
							<g>
								<circle fill="#56050F" cx="274.3" cy="444" r="2.3"/>
							</g>
							<g>
								<g>
									<path fill="#F5F5F5" d="M270.7,452.7l-12.1-5.1c-0.4-0.2-0.6-0.5-0.6-0.9c0-0.4,0.3-0.7,0.7-0.8l6.6-1.2l-3.3-5
										c-0.2-0.3-0.2-0.8,0.1-1.1c0.3-0.3,0.7-0.4,1.1-0.3l11.5,4.8c0.4,0.2,0.6,0.5,0.6,0.9c0,0.4-0.3,0.7-0.7,0.8l-6.2,1.1
										l3.5,5.3c0.2,0.3,0.2,0.8-0.1,1.1C271.5,452.7,271.1,452.8,270.7,452.7z M262.1,447.1l6.6,2.8l-2.3-3.5L262.1,447.1z
										 M265.2,441.1l2.1,3.2l3.9-0.7L265.2,441.1z"/>
								</g>
							</g>
						</g>
						<g>
							<path fill="#56050F" d="M273.3,437.8l-1.7-0.7c-4.9-0.8-6.7-8.6-6-13.5l-0.9-1c0.8-4.9,11.1-4.4,11.1-4.4
								C285.7,416.2,289.2,436,273.3,437.8z"/>
						</g>
					</g>
					<g>
						<path fill="#00A79D" d="M333.7,360.9c3.3,1.7,10.5,17.4,13.7,33.2c3,14.9,2.3,29.9,1.1,33.2c-2.9,7.8-8.1,8.6-16.1,6.2
							c-9.2-2.7-4.1-14.7-10.7-25.4c-5.4-8.8-15.8-14.7-17.8-15c-2.7-0.4-16.6,4.1-20.8,13.4c-4.6,10.2,5.2,15.9-0.5,26
							c-4.8,8.4-17.5,4.9-20-1.3c-1.1-2.6-6-19.6-4.2-33.5c2-16.3,11-29.8,13.7-31.8C284.1,357.3,320.6,354.1,333.7,360.9z"/>
					</g>
					<g>
						<g>
							<path fill="#05756A" d="M341.5,434.2C341.5,434.2,341.4,434.2,341.5,434.2c-0.6-0.1-1-0.5-1-1.1c0,0,0.1-1.1,0.2-2.9
								c0-0.5,0.5-1,1-0.9c0.5,0,0.9,0.5,0.9,1c-0.1,1.9-0.2,2.9-0.2,2.9C342.4,433.9,342,434.2,341.5,434.2z"/>
						</g>
						<g>
							<path fill="#05756A" d="M341.8,425.9C341.8,425.9,341.8,425.9,341.8,425.9c-0.5,0-1-0.4-1-1l0-0.9c0-1.5,0-3-0.1-4.5
								c0-0.5,0.4-1,0.9-1c0.5,0,1,0.4,1,0.9c0,1.5,0.1,3,0.1,4.5l0,0.9C342.8,425.5,342.3,425.9,341.8,425.9z M341.5,415.1
								c-0.5,0-0.9-0.4-1-0.9c-0.1-1.8-0.3-3.6-0.5-5.3c-0.1-0.5,0.3-1,0.8-1.1c0.5-0.1,1,0.3,1.1,0.8c0.2,1.8,0.4,3.6,0.5,5.4
								C342.5,414.6,342.1,415,341.5,415.1C341.5,415.1,341.5,415.1,341.5,415.1z M340.1,404.3c-0.5,0-0.9-0.3-1-0.8
								c-0.3-1.8-0.7-3.6-1.1-5.2c-0.1-0.5,0.2-1,0.7-1.2c0.5-0.1,1,0.2,1.2,0.7c0.4,1.7,0.8,3.5,1.2,5.4c0.1,0.5-0.3,1-0.8,1.1
								C340.2,404.3,340.2,404.3,340.1,404.3z M337.4,393.9c-0.4,0-0.8-0.2-0.9-0.6c-0.6-1.7-1.3-3.4-2.1-4.9
								c-0.2-0.5,0-1.1,0.4-1.3c0.5-0.2,1.1,0,1.3,0.4c0.8,1.6,1.5,3.3,2.2,5.1c0.2,0.5-0.1,1.1-0.6,1.2
								C337.6,393.8,337.5,393.9,337.4,393.9z"/>
						</g>
						<g>
							<path fill="#05756A" d="M332.5,384.2c-0.3,0-0.6-0.1-0.8-0.4c-0.6-0.8-1.2-1.5-1.8-2.2c-0.4-0.4-0.3-1,0.1-1.4
								c0.4-0.4,1-0.3,1.4,0.1c0.7,0.7,1.3,1.5,1.9,2.3c0.3,0.4,0.2,1-0.2,1.4C332.9,384.2,332.7,384.2,332.5,384.2z"/>
						</g>
					</g>
					<g>
						<g>
							<path fill="#05756A" d="M268.9,436.8c-0.5,0-0.9-0.3-1-0.8c0,0-0.2-1.1-0.4-2.9c-0.1-0.5,0.3-1,0.8-1.1
								c0.5-0.1,1,0.3,1.1,0.8c0.2,1.8,0.4,2.8,0.4,2.8c0.1,0.5-0.3,1-0.8,1.1C269,436.8,268.9,436.8,268.9,436.8z"/>
						</g>
						<g>
							<path fill="#05756A" d="M267.8,428.1c-0.5,0-0.9-0.4-1-0.9c-0.2-2-0.3-3.9-0.4-5.9c0-0.5,0.4-1,0.9-1c0.5,0,1,0.4,1,0.9
								c0.1,1.9,0.2,3.9,0.4,5.8C268.8,427.5,268.4,428,267.8,428.1C267.8,428.1,267.8,428.1,267.8,428.1z M267.2,416.4
								c-0.5,0-1-0.4-1-1l0-0.3c0-1.9,0-3.8,0.1-5.6c0-0.5,0.5-0.9,1-0.9c0.5,0,0.9,0.5,0.9,1c-0.1,1.8-0.1,3.6-0.1,5.5l0,0.3
								C268.2,416,267.7,416.4,267.2,416.4C267.2,416.4,267.2,416.4,267.2,416.4z M267.8,404.7c0,0-0.1,0-0.1,0
								c-0.5-0.1-0.9-0.5-0.9-1.1c0.2-2,0.5-4,0.9-5.9c0.1-0.5,0.6-0.9,1.1-0.8c0.5,0.1,0.9,0.6,0.8,1.1c-0.4,1.8-0.7,3.7-0.9,5.7
								C268.7,404.4,268.3,404.7,267.8,404.7z M270.1,393.3c-0.1,0-0.2,0-0.3,0c-0.5-0.2-0.8-0.7-0.6-1.2c0.6-2,1.4-3.9,2.2-5.6
								c0.2-0.5,0.8-0.7,1.3-0.5c0.5,0.2,0.7,0.8,0.5,1.3c-0.8,1.6-1.5,3.4-2.1,5.3C270.9,393,270.6,393.3,270.1,393.3z"/>
						</g>
						<g>
							<path fill="#05756A" d="M275.3,382.8c-0.2,0-0.4-0.1-0.6-0.2c-0.4-0.3-0.5-0.9-0.2-1.4c0.6-0.8,1.3-1.6,2-2.3
								c0.4-0.4,1-0.4,1.4,0s0.4,1,0,1.4c-0.6,0.6-1.2,1.4-1.8,2.1C275.9,382.7,275.6,382.8,275.3,382.8z"/>
						</g>
					</g>
					<g>
						<path fill="#F5F5F5" d="M332.4,431.5c2.4,1.3,5.4,1.5,8.2,0.5c3-1.1,5.1-3.5,6-6.3c0.7-2.2,3.4-1.4,3.3,0.1
							c-0.3,4.3-3.9,7.8-8.2,9.5c-4,1.5-8.5,1.6-11.5-1.1C328.4,432.6,330.7,430.6,332.4,431.5z"/>
					</g>
					<g>
						<path fill="#F5F5F5" d="M263.9,429.8c1.2,2.5,3.5,4.4,6.4,5.2c3.1,0.8,6.2,0.2,8.5-1.6c1.8-1.4,3.6,0.9,2.6,2
							c-2.7,3.3-7.7,4.1-12.2,2.9c-4.1-1.1-7.8-3.7-8.7-7.6C260,428.4,263.1,428.1,263.9,429.8z"/>
					</g>
				</g>
				<g>
					<path fill="#B04630" d="M361.8,273.6c3.2,34.9-29.1,58.6-64,61.7l0,0c-34.9,3.2-71.4-13.4-74.6-48.3l-2.6-99.6
						c-3.2-34.9,22.5-65.7,57.3-68.9l0,0c34.9-3.2,65.7,22.5,68.9,57.3L361.8,273.6z"/>
				</g>
				<g>
					<g>
						<path fill="#FFA969" d="M334.9,259.8c-3.1-3.8,3.6-14.4,14.9-23.6s23-13.7,26.1-9.9c3.1,3.8-3.6,14.4-14.9,23.6
							C349.6,259.2,338,263.6,334.9,259.8z"/>
					</g>
					<g>
						<path fill="#FFA969" d="M393.8,224.6c-0.8-3.4-8.5,5.8-9.7,3.3c-0.7-1.5,12-6.8,10.4-10.1c-1.5-3.3-10.9,7.2-12.1,5.1
							c-0.7-1.3,10.7-7.4,8.3-9.9c-2.7-2.9-10.7,6.7-12,4.9c-0.9-1.3,6.4-7.8,3.4-9.7c-4-2.5-8.3,11.4-12.9,10.1
							c-0.9-0.3-2.5-8.9-5.4-7.1c-3.5,2.2-1.8,15.3,0.5,20.2c0.5,1.1,1.2,2,2,2.8c0.3,0.3,0.5,0.6,0.8,0.9c2.9,2.7,6.9,3.3,10.3,1.9
							C384,235.2,394.3,226.8,393.8,224.6z"/>
					</g>
				</g>
				<g>
					<g>
						<path fill="#FFA969" d="M247.8,266.5c2.4-4.3-6.1-13.5-18.9-20.5c-12.8-7-25.1-9.3-27.5-5c-2.4,4.3,6.1,13.5,18.9,20.5
							C233.1,268.6,245.4,270.8,247.8,266.5z"/>
					</g>
					<g>
						<path fill="#FFA969" d="M183.4,242.6c0.2-3.5,9.4,4.1,10.1,1.5c0.4-1.6-13-4.5-12-8c0.9-3.5,12,5.1,12.8,2.9
							c0.5-1.4-11.8-5.3-10-8.2c2.1-3.3,11.7,4.6,12.7,2.6c0.7-1.4-7.7-6.5-5.1-9c3.5-3.2,10.2,9.7,14.5,7.6c0.8-0.4,0.8-9.2,4-8
							c3.9,1.5,4.6,14.8,3.2,20c-0.3,1.1-0.8,2.2-1.5,3.1c-0.2,0.3-0.4,0.7-0.7,1c-2.3,3.1-6.2,4.5-9.8,3.8
							C195,251.3,183.3,244.9,183.4,242.6z"/>
					</g>
				</g>
				<g>
					<path fill="#3951C4" d="M358.4,227.9c0,0,8.3,16.7,6.6,21.4c-1.8,5.1-29.1,33.7-31.2,41c-3.7,12.1,25.9,111,25.9,111
						s-30.4,15.7-58.9,16.8c-26.5,1.1-57.3-7.1-57.3-7.1s14-103.9,8-117.8c-2.2-5-37.7-28.2-39.4-33.1c-1.8-5.2,7-21.3,7-21.3
						s56.2,33.6,72,30.7C302,267.5,358.4,227.9,358.4,227.9z"/>
				</g>
				<g>
					<path fill="#0C3587" d="M260,235.4l2.5,27.2C263.6,275.4,293,282,293,282s25.1-10.5,23.9-23.7l-2.5-27.8L260,235.4z"/>
				</g>
				<g>
					<path fill="#FF8A54" d="M265.4,239.2l2,22.1c1,10.5,23.1,13.5,24.9,13.3c0,0,20.4-6.1,19.4-16.8l-2.1-22.6L265.4,239.2z"/>
				</g>
				<g>
					<g>
						<path fill="#EF852E" d="M258.2,256.3c-11.6,13.5,15.6,74,15.6,74l16-7.7c0,0-20.3-38.7-19.5-62.6
							C270.5,255.1,261.4,252.6,258.2,256.3z"/>
					</g>
					<g>
						<path fill="#FFBC36" d="M277.7,328.4c-11.5-25-25-64.3-18.3-72.1c0.2-0.2,2.8,2.3,3.5,2.2c1.4-0.1,3.2,0.4,4.1,1.2
							c0.2,0.2,0.4,0.4,0.3,0.5c-0.7,20.7,14.2,53.8,19.2,63.8L277.7,328.4z"/>
					</g>
					<g>
						<path fill="#FFFFFF" d="M286,324.5c-0.2-0.4-20.8-36.9-19.1-62.1l1.3,0.1c-1.7,24.8,18.7,61,18.9,61.4L286,324.5z"/>
					</g>
					<g>
						<path fill="#FFFFFF" d="M277.2,328.7c-0.2-0.4-22.4-41.9-19.4-70.8l1.3,0.1c-2.9,28.6,19,69.7,19.3,70.1L277.2,328.7z"/>
					</g>
				</g>
				<g>
					<g>
						<path fill="#EF852E" d="M302,255.3c19.6,38.3,2.3,93.6,2.3,93.6l18.2,3.2c0,0,17.4-69.8-4-102.7
							C315.8,245.4,299.8,251,302,255.3z"/>
					</g>
					<g>
						<path fill="#FFBC36" d="M318.8,351.4c9.6-36.5,6.1-91.7-2.5-97.3c-0.2-0.1-2,3-2.7,3.2c-1.4,0.3-2.9,1.3-3.6,2.4
							c-0.1,0.2-1.4,0.9-1.4,1c6.7,19.6,7.9,56.5-0.1,89L318.8,351.4z"/>
					</g>
					<g>
						<path fill="#FFFFFF" d="M309.1,349.8l-1.2-0.3c5.7-28.2,9.4-52.5,0.1-87.7l1.2-0.3C318.6,297,314.9,321.5,309.1,349.8z"/>
					</g>
					<g>
						<path fill="#FFFFFF" d="M319.4,351.6l-1.2-0.3c0.1-0.5,13.6-54,0-95.3l1.2-0.4C333.1,297.2,319.5,351.1,319.4,351.6z"/>
					</g>
				</g>
				<g>
					<g>
						<path fill="#FFA969" d="M224.9,201.9l2.7,29.1c2.6,28.5,37,39,59.7,37l8.7-0.8c22.7-2.1,54.8-16.5,52.1-45.7l-3.1-33.5
							l-62-33.6L224.9,201.9z"/>
					</g>
					<g>
						<path fill="#B04630" d="M224.9,201.9l-2.5-27.3c-2.6-28.5,28.8-49.9,51.6-52l8.7-0.8c22.7-2.1,49.2,9.3,59.6,35.5
							c0,0,10.4,29.5,3.1,33.5c-10.4,5.8-60.6-25.6-60.6-25.6C249.4,199.6,224.9,201.9,224.9,201.9z"/>
					</g>
					<g>
						<g>
							<path fill="#FFA969" d="M237.2,215.8c0.6,6.6-4.3,12.5-10.9,13.1l0,0c-6.6,0.6-12.5-4.3-13.1-10.9l-0.9-10.2
								c-0.6-6.6,4.3-12.5,10.9-13.1l0,0c6.6-0.6,12.5,4.3,13.1,10.9L237.2,215.8z"/>
						</g>
						<g>
							<path fill="#FFA969" d="M335.8,206.8c0.6,6.6,6.5,11.5,13.1,10.9l0,0c6.6-0.6,11.5-6.5,10.9-13.1l-0.9-10.2
								c-0.6-6.6-6.5-11.5-13.1-10.9l0,0c-6.6,0.6-11.5,6.5-10.9,13.1L335.8,206.8z"/>
						</g>
						<g>
							<path fill="#FF8A54" d="M225.4,206.4c-0.4-0.1-0.7-0.1-1.1,0c-2.6,0.2-4.5,2.5-4.3,5.1l0.3,3.6c0.2,2.6,2.5,4.5,5.1,4.3
								c0.4,0,0.7-0.1,1.1-0.2L225.4,206.4z"/>
						</g>
						<g>
							<path fill="#FF8A54" d="M346.8,195.2c-0.6,0.1-1.2,0.2-1.8,0.5l1.1,12.3c0.6,0.2,1.2,0.3,1.8,0.2c2.6-0.2,4.5-2.5,4.3-5.1
								l-0.3-3.6C351.8,196.8,349.4,194.9,346.8,195.2z"/>
						</g>
					</g>
					<g>
						<g>
							<path fill="#3C2415" d="M250,218c-1.5,0-2.8-1.2-3-2.7c-0.6-7.7,5.1-14.6,12.8-15.3c3.7-0.3,7.4,0.8,10.3,3.2
								c2.9,2.4,4.7,5.8,5,9.5c0.1,1.6-1.1,3.1-2.7,3.2c-1.6,0.2-3.1-1.1-3.2-2.7c-0.2-2.2-1.2-4.1-2.9-5.5s-3.8-2-5.9-1.9
								c-4.4,0.4-7.7,4.4-7.4,8.9c0.1,1.6-1.1,3.1-2.7,3.2C250.1,218,250,218,250,218z"/>
						</g>
						<g>
							<path fill="#3C2415" d="M302.3,213.2c-1.5,0-2.8-1.2-3-2.7c-0.6-7.7,5.1-14.6,12.8-15.3c3.7-0.3,7.4,0.8,10.3,3.2
								c2.9,2.4,4.7,5.8,5,9.5c0.1,1.6-1.1,3.1-2.7,3.2c-1.6,0.1-3.1-1.1-3.2-2.7c-0.2-2.2-1.2-4.1-2.9-5.5c-1.7-1.4-3.8-2-5.9-1.9
								c-4.4,0.4-7.7,4.4-7.4,8.9c0.1,1.6-1.1,3.1-2.7,3.2C302.5,213.2,302.4,213.2,302.3,213.2z"/>
						</g>
						<g>
							
								<ellipse transform="matrix(0.993 0.1185 -0.1185 0.993 29.4113 -28.0844)" fill="#ED7A6E" cx="250.9" cy="233.3" rx="9.4" ry="6.7"/>
						</g>
						<g>
							
								<ellipse transform="matrix(-0.9555 0.2951 -0.2951 -0.9555 706.5157 345.9636)" fill="#ED7A6E" cx="327.2" cy="226.3" rx="9.4" ry="6.7"/>
						</g>
						<g>
							<g>
								<path fill="#ED1C24" d="M291.6,251.8c4.2-0.3,7.6-4.4,8.4-9.9c-2.7-0.6-6-0.7-9.4-0.4c-3.2,0.3-6.1,1-8.5,1.9
									C283.7,248.6,287.5,252.1,291.6,251.8z"/>
							</g>
							<g>
								<path fill="#231F20" d="M298.3,231.3c-1.9-3.6-5-5.8-8.4-5.6c-3.5,0.2-6.3,3.1-7.7,7.1c-0.7,2-1,4.2-0.8,6.6
									c0.1,1.4,0.4,2.8,0.7,4c2.5-0.9,5.4-1.6,8.5-1.9c3.4-0.3,6.7-0.1,9.4,0.4c0.2-1.2,0.2-2.5,0.2-3.8
									C300,235.6,299.3,233.3,298.3,231.3z"/>
							</g>
						</g>
					</g>
				</g>
				<g>
					<g>
						<path fill="#253C71" d="M274.7,79.6c-9.5,0.9-118.5,39.1-118.1,42.7c0.5,5.2,123.6,19.8,123.6,19.8s118.5-35.1,117.9-42
							C397.7,95.4,280.9,79.1,274.7,79.6z"/>
					</g>
					<g>
						<path fill="#3A71CB" d="M330.7,113.4c-5.2-10.8-53.9-8.7-53.9-8.7s-52.3,8.2-54.5,19.9c-8.6,46.2-1.2,68.3-1.2,68.3
							s13.8-6.5,18.9-7.8c10.7-2.7,32.9-2.2,43.9-3.2c10.9-1,32.7-5.6,43.7-4.8c5.2,0.3,20,4.2,20,4.2S350.3,154.3,330.7,113.4z"/>
					</g>
					<g>
						<g>
							<path fill="#4389ED" d="M293.6,105c-9-0.6-16.8-0.3-16.8-0.3s-7.8,1.1-16.5,3.3c-3.2,2.1-5.9,4.8-6.9,8.3
								c-8.4,30.6-8.4,53.4-7.3,67.7c11.6-1.5,28.6-1.3,37.8-2.1c9.2-0.8,25.9-4.2,37.5-4.8c-1.6-14.3-5.7-36.7-19.5-65.3
								C300.3,108.6,297.1,106.4,293.6,105z"/>
						</g>
					</g>
				</g>
			</g>
			<g>
				<path fill="#F4BA37" d="M187.6,106.3c-2.6,12.3-2.5,25.7-7.5,37.4c-3.6,8.3-10.2,14.2-17.9,18.7c-14.8,8.6-31.6,12.6-43.4,25.7
					c-1.7,1.9,1.1,4.7,2.8,2.8c12.3-13.7,30.5-17.4,45.6-26.9c7.1-4.5,12.8-10.7,16.4-18.3c5.5-11.8,5.2-25.7,7.9-38.3
					C192,104.8,188.1,103.8,187.6,106.3z"/>
			</g>
			<g>
				<path fill="#F4BA37" d="M114.9,200.8c8.2-5.1,14.8-12.6,12.5-16.6l0,0c0,0,0,0,0,0c0,0,0,0,0-0.1l0,0
					c-2.6-3.8-12.2-1.3-20.5,3.8c0,0-0.9,2.6,2.1,7.6l0,0c0,0,0,0,0,0.1c0,0,0,0,0,0.1l0,0C112.1,200.5,114.9,200.8,114.9,200.8z"/>
			</g>
		</g>
	</g>
	<g>
		<g>
			<ellipse fill="#A7C6C3" cx="520.5" cy="489.1" rx="66" ry="9.5"/>
		</g>
		<g>
			<g>
				<path fill="#0C3587" d="M541.6,417.9c2.8,1.5,8.6,14.8,11.1,28.2c2.4,12.6,1.6,25.2,0.5,28c-4.4,11.4-12.5,7.2-21.1,4.8
					c-2-0.6-1.1-15.7-6.4-24.8c-4.4-7.5-7.9-9.2-9.6-9.5c-2.3-0.4-4.9,2.8-8.6,10.6c-4,8.5-2.5,17.8-5.9,23
					c-4.8,7.4-17.6,6.5-20.9-2c-0.9-2.2-3.1-15.7-1.5-27.4c1.9-13.7,8-26,10.3-27.6C499.8,414.2,530.7,412,541.6,417.9z"/>
			</g>
			<g>
				<g>
					<path fill="#FFC27D" d="M581.5,323.5c-4.3-2-6.2-16.3-0.2-29c6-12.8,12.9-17.9,17.1-15.9c4.3,2,4.3,10.4-1.6,23.1
						C590.8,314.4,585.8,325.5,581.5,323.5z"/>
				</g>
				<g>
					<path fill="#FFC27D" d="M610.9,262.2c-2.6-2.1-3.1,9.4-5.4,8.2c-1.4-0.7,5.2-12.2,2-13.8c-3.1-1.6-4.1,11.9-6.2,11
						c-1.3-0.6,3.8-11.9,0.6-12.4c-3.7-0.6-4.3,11.4-6.4,10.8c-1.5-0.4,0.4-9.7-3.1-9.4c-4.6,0.4,0.3,13.6-4,15.3
						c-0.8,0.3-7.1-5.4-8.3-2.3c-1.4,3.8,7.6,12.8,12.2,15.2c1,0.5,2.1,0.8,3.2,1c0.4,0.1,0.7,0.2,1.1,0.2c3.8,0.3,7.2-1.5,9-4.6
						C609.6,276.1,612.6,263.6,610.9,262.2z"/>
				</g>
			</g>
			<g>
				<g>
					<path fill="#FFC27D" d="M455.9,314.6c4.3-2,2.5-9.8-3.7-22.5c-6.1-12.7-13-17.8-17.3-15.7c-4.3,2-4.2,10.4,1.9,23.1
						C442.9,312.1,451.6,316.6,455.9,314.6z"/>
				</g>
				<g>
					<path fill="#FFC27D" d="M422.4,260.5c2.7-2.1,2.9,9.5,5.2,8.4c1.4-0.7-4.9-12.3-1.7-13.9c3.1-1.5,3.8,12,5.9,11.2
						c1.4-0.6-3.5-12-0.2-12.5c3.7-0.5,3.9,11.5,6.1,10.9c1.5-0.4-0.1-9.7,3.4-9.3c4.6,0.5-0.7,13.5,3.6,15.4
						c0.8,0.4,7.3-5.2,8.3-2.1c1.3,3.8-7.9,12.6-12.6,14.8c-1,0.5-2.1,0.8-3.2,0.9c-0.4,0.1-0.8,0.1-1.1,0.2
						c-3.8,0.2-7.1-1.7-8.9-4.8C423.3,274.4,420.6,261.8,422.4,260.5z"/>
				</g>
			</g>
			<g>
				<g>
					<g>
						<g>
							<path fill="#231F20" d="M478.8,470.2c-4.3,2.7-7,8.7-7.1,13.3l0,1.1l38.3,0.4l0-1.1c0.1-4.6-2.5-10.7-6.7-13.5
								c-3.4,2.1-7.6,0.9-12.2,0.9C486.4,471.3,482.1,472.4,478.8,470.2z"/>
						</g>
						<g>
							<path fill="#FFFFFF" d="M478.8,470.2c3.3,2.2,7.6,1.1,12.2,1.2c4.7,0.1,8.9,1.2,12.2-0.9c-3.3-2.2-7.5-3.5-12.2-3.5
								C486.5,466.9,482.2,468.1,478.8,470.2z"/>
						</g>
					</g>
					<g>
						<polygon fill="#414042" points="509.9,489.1 471.5,488.7 471.7,484.6 510,485.1 						"/>
					</g>
				</g>
				<g>
					<g>
						<g>
							<path fill="#231F20" d="M530.9,470.3c-4.3,2.7-7,8.7-7.1,13.3l0,1.1l38.3,0.3l0-1.1c0.1-4.6-2.6-10.7-6.8-13.4
								c-3.4,2.1-7.1,1.3-11.8,1.2C539,471.7,534.2,472.5,530.9,470.3z"/>
						</g>
						<g>
							<path fill="#FFFFFF" d="M530.9,470.3c3.3,2.2,8.1,1.4,12.7,1.4c4.7,0,8.4,0.9,11.8-1.2c-3.3-2.2-7.5-3.5-12.2-3.5
								C538.5,467,534.3,468.2,530.9,470.3z"/>
						</g>
					</g>
					<g>
						<polygon fill="#414042" points="562.1,489.1 523.7,488.8 523.8,484.8 562.2,485.1 						"/>
					</g>
				</g>
			</g>
			<g>
				<path fill="#3951C4" d="M573.7,299.3c4-3,8.2-11.2,11.8-14.4c1.5-1.3,18.2,4.4,17.7,10.2c-1,10.5-15.2,27.2-16.8,28.4
					c-5.3,4-27.2,18.5-29.9,25.2c-4.6,11.3,15.1,102.5,15.1,102.5s-30.5,12.4-58,11c-25.5-1.3-54.4-11.8-54.4-11.8
					s22.6-87.8,18.1-101.7c-1.7-5-23.6-22.5-27.8-25.2c-2.8-1.8-17.6-21.7-18.4-27.2c-1.2-8.3,15.2-17.2,17.4-14.7
					c4.5,5,12.8,17.8,12.8,17.8s40.7,20.8,56.1,19.4C528.1,317.8,561.8,308.1,573.7,299.3z"/>
			</g>
			<g>
				<path fill="#0C3587" d="M490.5,283.3l0,26.3c0,12.4,27.6,21.3,27.6,21.3s25-7.9,25-20.7l0-26.9L490.5,283.3z"/>
			</g>
			<g>
				<path fill="#FF8A54" d="M495.4,287.4l0,21.4c0,10.1,21,15,22.7,15c0,0,20.1-4,20.1-14.4l0-21.9L495.4,287.4z"/>
			</g>
			<g>
				<g>
					<path fill="#EF852E" d="M529.5,307.8c26,32.3,20.4,87.9,20.4,87.9l17.8-0.6c-0.3,6.2,5.9-66.2-23.8-96.1
						C540.6,295.7,526.6,304.2,529.5,307.8z"/>
				</g>
				<g>
					<path fill="#FFBC36" d="M564.1,395.2c1.9-36.3-12.1-87.8-21.3-91.3c-0.2-0.1-1.3,3.2-2,3.5c-1.3,0.6-2.5,1.8-2.9,2.9
						c-0.1,0.2-1.2,1.1-1.1,1.2c10.1,17.2,18.5,51.8,17.3,84L564.1,395.2z"/>
				</g>
				<g>
					<path fill="#FFFFFF" d="M553.5,395.6c-0.1-27.7-1.4-51.4-17-82.8l1.1-0.5c15.7,31.6,17,55.4,17.1,83.3L553.5,395.6z"/>
				</g>
				<g>
					<path fill="#FFFFFF" d="M564.7,395.3l-1.2-0.1c0-0.5,2.3-53.6-18.6-89.9l1.1-0.6C567,341.3,564.7,394.7,564.7,395.3z"/>
				</g>
			</g>
			<g>
				<polygon fill="#0C3587" points="516.4,327 514.3,462.2 517.5,462.3 520.5,327 				"/>
			</g>
			<g>
				<g>
					<path fill="#EF852E" d="M484,304.8c-8.3,15,29.2,66.8,29.2,66.8l13.6-10.4c0,0-26.7-32.5-30.7-55.2
						C495.3,301.3,486.3,300.7,484,304.8z"/>
				</g>
				<g>
					<path fill="#FFBC36" d="M516.5,369c-15.8-21.3-36.2-55.8-31.4-64.4c0.1-0.2,3.1,1.6,3.8,1.4c1.3-0.4,3.1-0.2,4.1,0.4
						c0.2,0.1,0.4,0.3,0.4,0.4c3.4,19.6,24,48,30.6,56.5L516.5,369z"/>
				</g>
				<g>
					<path fill="#FFFFFF" d="M523.5,363.7c-0.3-0.3-26.9-30.8-30.1-54.9l1.2-0.2c3.2,23.8,29.6,53.9,29.9,54.2L523.5,363.7z"/>
				</g>
				<g>
					<path fill="#FFFFFF" d="M516.1,369.4c-0.3-0.3-29.3-35.1-32.2-63l1.2-0.1c2.8,27.5,31.6,62,31.9,62.3L516.1,369.4z"/>
				</g>
			</g>
			<g>
				<g>
					<path fill="#FFC27D" d="M458.6,215.2l-2,60.5c-0.9,28.7,31.9,43.4,54.8,44.2l8.8,0.3c22.8,0.8,56.6-9.6,57.5-39l2-61.9
						L458.6,215.2z"/>
				</g>
				<g>
					<g>
						<path fill="#3C2415" d="M502.1,265.9c-0.9,0-1.8-0.4-2.4-1.2c-1.7-2.3-4.6-3.7-7.9-3.9c-3.7-0.3-7.4,1-9.9,3.5
							c-1.2,1.2-3.1,1.1-4.2-0.1c-1.2-1.2-1.1-3.1,0.1-4.2c3.7-3.7,9-5.5,14.5-5.2c5,0.3,9.5,2.6,12.2,6.2c1,1.3,0.8,3.2-0.5,4.2
							C503.4,265.7,502.8,265.9,502.1,265.9z"/>
					</g>
					<g>
						<path fill="#3C2415" d="M557.5,267.7c-0.9,0-1.8-0.4-2.4-1.2c-1.7-2.2-4.6-3.7-7.9-3.9c-3.7-0.3-7.4,1-9.9,3.5
							c-1.2,1.2-3.1,1.1-4.2-0.1c-1.2-1.2-1.1-3.1,0.1-4.2c3.7-3.7,9-5.5,14.5-5.2c5,0.3,9.5,2.6,12.2,6.2c1,1.3,0.8,3.2-0.5,4.2
							C558.8,267.5,558.1,267.7,557.5,267.7z"/>
					</g>
					<g>
						<path fill="#ED4033" d="M519.6,293.8l1.5,7.4c0.9,4.4,5.3,7.3,9.7,6.4c4.4-0.9,7.3-5.3,6.4-9.7l-1.5-7.4L519.6,293.8z"/>
					</g>
					<g>
						<path fill="#D82432" d="M519.6,296.1c-0.8,0-1.5,0-2.3,0c-11.5-0.4-24.8-3.7-24.6-11.9c0-1.5,1.3-2.7,2.7-2.7c0,0,0.1,0,0.1,0
							c1.5,0.1,2.7,1.3,2.7,2.8c-0.1,2.3,6.7,5.8,19.3,6.2c12.5,0.4,19.6-2.7,19.6-4.9c0.1-1.5,1.3-2.7,2.8-2.7
							c1.5,0.1,2.7,1.3,2.7,2.8C542.4,293.5,530.6,296.1,519.6,296.1z"/>
					</g>
				</g>
			</g>
			<g>
				<polygon fill="#231F20" points="579.3,239 577.5,248.7 508.2,223.5 457.6,245.6 457.6,226.8 519.6,203.1 				"/>
			</g>
			<g>
				<g>
					<path fill="#253C71" d="M518.1,138c-9.2,0-116.8,24.3-116.8,27.7c0,5,116.8,29.9,116.8,29.9S635,172.2,635,165.6
						C635,161,524.1,138,518.1,138z"/>
				</g>
				<g>
					<path fill="#24499F" d="M572.5,173.9c-2.9-11.2-54.3-14.6-54.3-14.6s-50.6,0.8-54.4,11.7c-13.8,39-6.7,68.1-6.7,68.1
						s13.9-5,18.8-5.8c10.5-1.7,31.8,0.8,42.4,0.8c10.6,0,31.9-2.5,42.4-0.8c5,0.8,18.8,5.8,18.8,5.8S583.5,215.8,572.5,173.9z"/>
				</g>
				<g>
					<g>
						<path fill="#3A71CB" d="M534.3,161c-8.6-1.4-16.1-1.8-16.1-1.8s-7.5,0.4-16.1,1.8c-3.3,1.7-6.1,4.1-7.4,7.4
							c-10.8,28.6-12.7,50.5-13,64.4c11.2-0.4,27.6,1.3,36.4,1.3s25.2-1.7,36.4-1.3c-0.2-13.8-2.2-35.8-13-64.4
							C540.4,165.1,537.6,162.8,534.3,161z"/>
					</g>
				</g>
			</g>
			<g>
				<g>
					<path fill="#FFC27D" d="M473.1,263.8c0,6.5-5.3,11.8-11.8,11.8l0,0c-6.5,0-11.8-5.3-11.8-11.8l0-10c0-6.5,5.3-11.8,11.8-11.8
						l0,0c6.5,0,11.8,5.3,11.8,11.8L473.1,263.8z"/>
				</g>
				<g>
					<path fill="#FFC27D" d="M561.9,263.8c0,6.5,5.3,11.8,11.8,11.8l0,0c6.5,0,11.8-5.3,11.8-11.8l0-10c0-6.5-5.3-11.8-11.8-11.8
						l0,0c-6.5,0-11.8,5.3-11.8,11.8L561.9,263.8z"/>
				</g>
				<g>
					<path fill="#FF8A54" d="M460,253.5c-0.3-0.1-0.7-0.1-1.1-0.1c-2.6,0-4.7,2.1-4.7,4.6l0,3.6c0,2.6,2.1,4.7,4.7,4.7
						c0.4,0,0.7,0,1.1-0.1L460,253.5z"/>
				</g>
				<g>
					<path fill="#FF8A54" d="M576.2,253.4c-0.6,0-1.2,0.1-1.8,0.4l0,12.2c0.5,0.2,1.2,0.4,1.8,0.4c2.6,0,4.7-2.1,4.7-4.6v-3.6
						C580.8,255.5,578.7,253.4,576.2,253.4z"/>
				</g>
			</g>
		</g>
		<g>
			<path fill="#F4BA37" d="M500,393c-8.1,9.1-15.9,21.1-29.9,18.8c-14.1-2.3-22.6-17-26.7-29.3c-3.9-11.6-6-23.7-12.7-34.2
				c-1.4-2.2-4.8-0.2-3.5,2c13,20.5,10.5,54.5,37.7,64.2c11.9,4.3,22.6-1.1,30.6-10.1C503.7,395.4,506.5,385.7,500,393z"/>
		</g>
		<g>
			<path fill="#F4BA37" d="M620,204.7c-0.6,0-1.1-0.2-1.5-0.7c-0.2-0.2-0.3-0.4-0.4-1.3l-0.1,0c0-0.1,0-0.3,0-0.4
				c-0.1-2.1-0.2-7.3-0.3-20.5c-0.1-21.6,0.1-22.1,0.5-22.7c0.5-1,1.7-1.3,2.7-0.8c0.9,0.5,1.2,1.4,1,2.3c-0.4,3.1,0,38.7,0.1,42
				c0,0,0,0.1,0,0.1c0,0.8-0.5,1.7-1.3,2C620.5,204.7,620.3,204.7,620,204.7z"/>
		</g>
		<g>
			<path fill="#F4BA37" d="M627.4,211.3c0-9.7-2.9-19.2-7.5-19.4v0c0,0,0,0-0.1,0c0,0,0,0-0.1,0v0c-4.6,0.2-7.5,9.7-7.5,19.4
				c0,0,1.7,2.2,7.5,2.2v0c0,0,0,0,0.1,0s0,0,0.1,0v0C625.6,213.5,627.4,211.3,627.4,211.3z"/>
		</g>
		<g>
			<path fill="#F4BA37" d="M497.9,387.6c-6.6,7.1-11,16.1-7.8,19.3l0,0c0,0,0,0,0,0c0,0,0,0,0,0l0,0c3.5,3,12.1-2,18.7-9.1
				c0,0,0.2-2.8-4-6.8l0,0c0,0,0,0,0,0s0,0,0,0l0,0C500.7,387.2,497.9,387.6,497.9,387.6z"/>
		</g>
	</g>
</g>
<g id="Calque_2">
	<g>
		<path fill="#FFFFFF" d="M301.3,584.8l-3.1,0c-2.2,0-3.8,0.1-4.8,0.1c-0.9,0.1-1.6,0.1-1.9,0.1c-1,0-1.7-0.2-2.3-0.7
			c-0.5-0.5-0.8-1.1-0.8-1.7c0-0.4,0.1-0.8,0.3-1s0.7-0.6,1.5-1.2c0.5-0.3,0.8-0.8,0.9-1.5s0.4-2.1,0.6-4.3
			c0.3-3.4,0.4-7.6,0.4-12.6c0-1.8-0.1-3-0.4-3.6s-0.8-1.1-1.7-1.5c-1-0.4-1.5-1.1-1.5-1.9c0-0.7,0.3-1.3,0.9-1.7s1.4-0.7,2.4-0.7
			c0.5,0,1.2,0,2,0.1c1.4,0.1,2.9,0.1,4.5,0.1c1.2,0,3.5,0,6.9-0.1c1.1,0,2.1,0,2.9,0c2.1,0,3.8,0.2,5,0.5s2.4,0.9,3.3,1.7
			c1.5,1.3,2.3,3,2.3,5.2c0,1.1-0.2,2.1-0.7,3.2s-1.1,1.8-1.8,2.4c-0.5,0.4-0.8,0.8-0.8,1.2c0,0.4,0.3,0.7,1,1
			c1.3,0.5,2.4,1.4,3.5,2.6c1.1,1.3,1.6,2.9,1.6,4.8c0,2.3-0.8,4.3-2.5,6.2c-2.2,2.5-5.4,3.7-9.6,3.7c-0.6,0-2,0-4.3-0.1
			C303,584.8,301.7,584.8,301.3,584.8z M302.9,559.4v4.8c0,0.8,0.1,1.3,0.3,1.6s0.5,0.5,1,0.5c1.2,0,2-0.4,2.6-1.1s0.8-1.8,0.8-3.3
			c0-1.5-0.3-2.6-0.8-3.4s-1.4-1.2-2.4-1.2c-0.5,0-0.9,0.2-1.1,0.5S302.9,558.6,302.9,559.4z M302.9,572.9v2.2c0,2,0.1,3.4,0.4,4.1
			s0.9,1,1.8,1c2.4,0,3.6-1.4,3.6-4.2c0-3.5-1.3-5.2-4-5.2c-0.7,0-1.2,0.1-1.4,0.4S302.9,572.1,302.9,572.9z"/>
		<path fill="#FFFFFF" d="M338.3,571.4c-0.6,0-1,0.2-1.1,0.5s-0.2,1.2-0.2,2.5c0,2,0.1,3.5,0.4,4.6c0.1,0.3,0.2,0.6,0.4,0.7
			s0.5,0.4,0.9,0.6c0.9,0.5,1.4,1.2,1.4,2c0,1-0.7,1.8-2,2.2s-3.5,0.6-6.6,0.6c-5.8,0-8.7-1.1-8.7-3.3c0-0.4,0.1-0.7,0.3-0.9
			s0.6-0.5,1.2-0.9c0.7-0.5,1.2-1,1.4-1.6s0.4-1.7,0.5-3.2c0.1-1.1,0.1-5.1,0.1-11.9c0-2.2-0.1-3.6-0.3-4.4s-0.7-1.4-1.4-1.7
			c-0.7-0.3-1.1-0.6-1.4-0.9s-0.4-0.6-0.4-1.1c0-0.6,0.2-1.1,0.7-1.5s1.1-0.7,1.9-0.9c0.7-0.2,1.6-0.3,2.8-0.3
			c0.5,0,1.8,0.1,3.9,0.2c0.4,0,1,0,1.9,0c1.4,0,3.3-0.1,5.6-0.3c1.5-0.1,2.5-0.2,3.1-0.2c3.3,0,6.1,0.8,8.3,2.4c2,1.5,3,3.5,3,6
			c0,1.4-0.3,2.7-1,3.9s-1.6,2.1-2.8,2.7c-0.5,0.3-0.8,0.5-0.8,0.9c0,0.5,0.4,0.8,1.1,1.1c1.6,0.6,2.8,1.5,3.6,2.7s1.3,3,1.6,5.5
			c0.1,1,0.3,1.7,0.6,2s0.9,0.6,1.9,0.9c0.3,0.1,0.5,0.3,0.8,0.6s0.3,0.6,0.3,1c0,0.5-0.2,1-0.6,1.5s-0.9,0.9-1.5,1.2
			c-1.3,0.6-3.1,0.9-5.4,0.9c-3,0-5.2-0.8-6.5-2.4c-0.6-0.7-1.1-1.6-1.5-2.7s-0.9-2.8-1.5-5.1c-0.4-1.5-0.8-2.5-1.4-3.1
			S339.4,571.4,338.3,571.4z M337,559.4l-0.3,5.5c0,0,0,0.1,0,0.2c0,0.6,0.1,0.9,0.2,1.1s0.5,0.3,1,0.3c1.4,0,2.4-0.4,3-1.1
			s0.9-1.8,0.9-3.4c0-3-1.1-4.5-3.2-4.5c-0.6,0-1,0.1-1.3,0.4S337,558.7,337,559.4z"/>
		<path fill="#FFFFFF" d="M390.6,568.6l4.4,9.5c0.4,0.9,0.8,1.4,1.1,1.7s0.7,0.5,1.3,0.6c1.1,0.2,1.7,0.7,1.7,1.7
			c0,1.1-0.7,2-2.1,2.5c-1.4,0.5-3.6,0.8-6.8,0.8c-3.5,0-6.1-0.1-7.9-0.4c-0.8-0.1-1.4-0.4-1.9-0.9s-0.7-0.9-0.7-1.6
			c0-0.5,0.1-0.8,0.4-1.1s0.7-0.5,1.3-0.7c0.7-0.3,1.1-0.7,1.1-1.3c0-1-0.6-1.7-1.9-1.9c-1.4-0.2-3.3-0.3-5.7-0.3
			c-2.1,0-3.3,0.1-3.7,0.4c-0.3,0.2-0.5,0.4-0.7,0.8s-0.3,0.8-0.3,1.2c0,0.3,0.1,0.6,0.2,0.7s0.6,0.3,1.3,0.5c1,0.3,1.4,0.8,1.4,1.7
			c0,1.9-2.2,2.8-6.7,2.8c-2.5,0-4.4-0.2-5.6-0.5c-1.1-0.3-1.6-1-1.6-2.2c0-0.5,0.1-0.9,0.4-1.1s0.7-0.5,1.3-0.7
			c1-0.4,1.8-0.9,2.3-1.5s1.3-2,2.2-4.2l3.3-7.2c1.2-2.7,2-4.6,2.4-6s0.6-2.6,0.6-3.9c0-1.3,0.1-2.3,0.2-2.8s0.5-1,1-1.5
			c1.1-1.1,2.5-1.6,4.1-1.6c1.6,0,3.1,0.6,4.5,1.9C383.8,555.6,386.7,560.5,390.6,568.6z M374.2,571.6h4.6c0.8,0,1.3-0.2,1.3-0.6
			c0-0.5-0.6-1.8-1.8-3.8c-0.5-0.9-0.9-1.5-1.2-1.9s-0.6-0.5-0.9-0.5c-0.6,0-1,0.5-1.4,1.6c-0.1,0.1-0.3,0.7-0.7,1.7
			c-0.7,1.6-1,2.5-1,2.9C373.2,571.4,373.5,571.6,374.2,571.6z"/>
		<path fill="#FFFFFF" d="M432.2,560.1l-10.8,21.8c-0.7,1.3-1.3,2.3-1.9,2.8s-1.3,0.8-2.3,0.8c-0.8,0-1.4-0.2-2-0.5
			c-0.5-0.3-0.8-0.5-1.1-0.9s-0.6-0.9-1-1.8l-9.6-21.1c-0.5-1.2-1-2-1.4-2.4s-1-0.7-1.8-0.9c-0.9-0.2-1.4-0.8-1.4-1.7
			c0-1.2,0.8-2.1,2.5-2.8s4-1,7.1-1c3.2,0,5.5,0.2,7,0.7s2.3,1.2,2.3,2.3c0,0.7-0.4,1.3-1.2,1.8c-0.6,0.4-0.9,0.8-0.9,1.2
			c0,0.3,0.1,0.8,0.4,1.5l2.9,6.6c0.4,1,0.9,1.5,1.4,1.5c0.5,0,1-0.3,1.4-0.8s1-1.5,1.6-3c1.2-2.7,2-4.3,2.2-4.8s0.3-0.9,0.3-1.1
			c0-0.5-0.4-1-1.1-1.4c-0.8-0.4-1.2-1-1.2-1.6c0-1.9,2.5-2.8,7.5-2.8c2.5,0,4.2,0.2,5.3,0.6s1.5,1.1,1.5,2.1c0,1.2-0.7,1.8-2,2
			c-1,0.1-1.6,0.3-1.9,0.5C433.5,557.8,432.9,558.7,432.2,560.1z"/>
		<path fill="#FFFFFF" d="M456.5,552.2c4,0,7.5,1.1,10.5,3.4c2,1.6,3.7,3.6,4.9,6.1c1.2,2.5,1.9,5,1.9,7.5c0,3.7-1.2,7-3.7,9.9
			c-2.1,2.5-4.8,4.2-8.1,5.3c-2,0.7-4.1,1-6.2,1c-2.7,0-5.3-0.6-7.8-1.7c-3-1.4-5.3-3.4-7-6.2c-1.6-2.7-2.5-5.6-2.5-8.8
			c0-3.7,1.1-7,3.2-9.8c1.9-2.5,4.4-4.4,7.6-5.6C451.5,552.6,453.9,552.2,456.5,552.2z M454.3,558.9c-1.3,0-2.4,0.6-3.1,1.8
			c-0.6,0.9-0.9,1.9-0.9,3.1c0,1.8,0.4,3.8,1.1,6.1s1.6,4.4,2.7,6.2c0.5,0.8,1.1,1.4,1.8,1.8s1.4,0.7,2.2,0.7c1.2,0,2.1-0.4,2.9-1.3
			s1.1-2.1,1.1-3.5c0-1.9-0.3-3.9-0.9-6.1s-1.4-4.1-2.4-5.6c-0.6-1-1.3-1.7-2.1-2.3S455.1,558.9,454.3,558.9z"/>
		<path fill="#FFFFFF" d="M494.3,553.1c1.4,0,2.6,0.5,3.5,1.5c1.3,1.3,1.9,3.2,1.9,5.6c0,1.6-0.3,3.3-0.8,5.1s-1.3,3.5-2.2,4.9
			c-1,1.6-1.9,2.4-2.5,2.4c-0.6,0-1.5-1-2.6-3.1c-0.8-1.5-1.5-3.2-2-4.9s-0.7-3.4-0.7-4.8c0-1.8,0.4-3.3,1.2-4.5
			C491,553.9,492.4,553.1,494.3,553.1z M494.4,575.3c1.4,0,2.5,0.5,3.5,1.5c1,1,1.5,2.2,1.5,3.5c0,1.4-0.5,2.6-1.5,3.6
			s-2.2,1.5-3.6,1.5c-1.4,0-2.5-0.5-3.5-1.4c-1-1-1.6-2.2-1.6-3.7c0-1.4,0.5-2.5,1.4-3.4C491.6,575.8,492.9,575.3,494.4,575.3z"/>
	</g>
</g>
</svg>
